<?xml version="1.0" encoding="utf-8"?>
<!-- Generator: Adobe Illustrator 16.0.0, SVG Export Plug-In . SVG Version: 6.00 Build 0)  -->
<!DOCTYPE svg PUBLIC "-//W3C//DTD SVG 1.1//EN" "http://www.w3.org/Graphics/SVG/1.1/DTD/svg11.dtd">
<svg version="1.1" id="Layer_2" xmlns="http://www.w3.org/2000/svg" xmlns:xlink="http://www.w3.org/1999/xlink" x="0px" y="0px"
	 width="1024px" height="1024px" viewBox="0 0 1024 1024" enable-background="new 0 0 1024 1024" xml:space="preserve">
<path fill="#AB8E30" d="M507.79,957.72c116.92,0,90.52,52.8,191.41,52.8s206.5-56.57,206.5-179.15
	c0-122.58-122.58-122.58-179.15-209.32c-56.57-86.75-67.89-233.84-218.75-233.84c-150.86,0-162.18,147.09-218.75,233.84
	c-56.57,86.75-179.15,86.75-179.15,209.32c0,122.58,105.6,179.15,206.5,179.15C417.27,1010.52,390.87,957.72,507.79,957.72z"/>
<path fill="#AB8E30" d="M475.64,181.25C491.06,286.84,439,381.86,359.37,393.48c-79.63,11.65-156.7-64.53-172.11-170.12
	C171.84,117.78,223.89,22.75,303.53,11.12C383.16-0.51,460.22,75.66,475.64,181.25z"/>
<path fill="#AB8E30" d="M548.41,181.25c-15.43,105.59,36.64,200.61,116.27,212.23c79.63,11.65,156.69-64.53,172.11-170.12
	c15.42-105.59-36.63-200.61-116.27-212.24C640.88-0.51,563.83,75.66,548.41,181.25z"/>
<path fill="#AB8E30" d="M764.09,474.98c-13.69,93.71,32.52,178.03,103.19,188.34c70.67,10.34,139.06-57.27,152.73-150.97
	c13.68-93.7-32.5-178.03-103.18-188.35C846.15,313.68,777.78,381.28,764.09,474.98z"/>
<path fill="#AB8E30" d="M261.92,474.98c13.69,93.71-32.52,178.03-103.19,188.34C88.07,673.67,19.68,606.06,6,512.36
	c-13.68-93.7,32.5-178.03,103.18-188.35C179.86,313.68,248.23,381.28,261.92,474.98z"/>
</svg>
