<?xml version="1.0" encoding="utf-8"?>
<!-- Generator: Adobe Illustrator 16.0.0, SVG Export Plug-In . SVG Version: 6.00 Build 0)  -->
<!DOCTYPE svg PUBLIC "-//W3C//DTD SVG 1.1//EN" "http://www.w3.org/Graphics/SVG/1.1/DTD/svg11.dtd">
<svg version="1.1" id="Layer_1" xmlns="http://www.w3.org/2000/svg" xmlns:xlink="http://www.w3.org/1999/xlink" x="0px" y="0px"
	 width="2541.76px" height="1024px" viewBox="0 0 2541.76 1024" enable-background="new 0 0 2541.76 1024" xml:space="preserve">
<g id="Layer_1_1_" display="none">
	<path display="inline" fill="#249FC3" d="M1412.63,375.76c0.92-0.34,1.84-0.88,2.79-1.01c3.55-0.46,7.15-0.74,10.7-1.21
		c4.51-0.58,24.89,0.41,24.64,1.11c-0.938,2.609-1.779,5.1-5.068,5.989c-0.932,0.23-1.562,2.63-1.82,4.13
		c-0.479,2.75-2.14,4.48-4.29,5.961c-1.07,0.739-18.21,12.279-18.43,11.1c-0.062-0.34-15.07,4.88-17.521,5.14
		c-3.95,0.432-6.12,1.57-6.979,4.54c-0.36,1.38,0.818,3.63-2.15,3.432c-1.688-0.11-3.39-0.262-5.04,0
		c-2.13,0.31-4.311,0.75-6.3,1.55c-1.92,0.79-3.74,2-5.44,3.2c-2.16,1.54-4.17,3.3-6.26,4.93c-4.561,3.56-9.12,7.17-13.72,10.688
		c-5.142,3.9-10.29,7.71-15.352,11.69c-5.14,4.05-10.079,8.43-15.318,12.35c-5.852,4.36-11.98,8.352-17.95,12.57
		c-3.6,2.562-7.34,4.98-10.55,7.92c-3.71,3.352-8.271,3.41-12.65,4.3c-0.17,0.012-0.479-0.42-0.688-0.729
		c-2.65-4.03-6.82-5.88-11.182-7.3c-2.17-0.71-4.63-0.82-6.988-0.94c-2.291-0.13-4.32-2.75-6.802-0.63
		c-0.06-0.3-0.27-0.62-0.16-0.86c0.61-1.77,1.182-3.55,2.012-5.22c8.8,0.92,15.3-63.939,15.52-65.07
		c0.05-0.188,0.15-0.358,0.23-0.528c0.229,0.3,0.528,0.568,0.68,0.87c2.35,4.068,4.56,8.18,7.04,12.148
		c1.95,3.18,4.189,6.21,6.34,9.24c0.771,1.03,5.93,2.41,6.21,2.29c0.96-0.521,2.22-1.12,3.14-0.86c3,0.73,5.182-0.63,7.552-2.08
		c2.25-1.33,4.858-2.01,7.21-3.22c1.67-0.87,2.979-2.33,4.67-3.189c3.818-1.921,7.78-3.591,11.648-5.421
		c1.41-0.688,2.682-1.72,4.142-2.318c2.58-1.12,5.3-1.92,7.88-3.04c0.71-0.312,1.061-1.432,1.72-1.972
		c1.302-1.028,2.69-1.88,4.021-2.858c2-1.46,3.79-3.352,6.02-4.3c2.04-0.86,3.511-4.011,6.521-2.07c0.29,0.229,1.01,0.33,1.09,0.18
		c1.78-2.648,4.02-0.81,5.85-0.39c2.7,0.59,2.08-1.05,1.562-2.04c-1.25-2.23,25.1-6.3,25.52-7.18c0.54-1.221,0.54-3.11,1.471-3.65
		c4-2.33,8.229-4.32,12.409-6.36c0.36-0.189,0.88-0.09,1.32-0.14c-0.03,0.4-0.06,0.78-0.14,1.15"/>
	<path display="inline" fill="#249FC3" d="M1444.4,176.98c0.34,1.37,2.5,2.27,3.869,3.39c0.261,0.18,0.631,0.22,0.971,0.35
		c-0.21,0.26-0.33,0.562-0.57,0.8c-1.09,1.3-1.65,3.45-4.188,2.69c-0.19-0.06-0.71,1.58-1.271,2.31c-0.54,0.74-1.2,1.47-1.97,2.01
		c-1.95,1.35-4.28,2.25-5.87,3.9c-3.41,3.6-6.53,7.44-9.59,11.35c-1.29,1.65-2.04,3.729-3.11,5.57c-0.72,1.18-1.99,2.16-2.27,3.41
		c-0.58,2.56-2.11,3.99-4.09,5.63c-1.78,1.49-6.73,22.25-6.932,22.33c0.13,0.09,0.301,0.18,0.48,0.26
		c0.39,0.16-3.051,1.79-4.04,2.96c-3.69,4.26-7.261,8.67-10.67,13.15c-2.262,2.92-4.25,6.07-6.36,9.12
		c-1.729,2.5-3.479,5.05-5.229,7.59c-3.74,5.55-7.48,11.12-11.19,16.69c-3.82,5.75-7.68,11.46-11.37,17.279
		c-2.02,3.171-3.76,6.53-5.64,9.771c-1.62,2.75-3.19,5.55-4.97,8.229c-3.302,4.95-6.802,9.711-10.041,14.711
		c-1.289,1.96-1.971,4.329-3.149,6.409c-0.95,1.7-1.84,3.69-4.58,1.83c-0.87-0.63-3.66-0.3-3.88,0.24c-0.58,1.47-0.7,3.46-0.19,4.95
		c0.521,1.57,0.49,1.66-1.159,2.04c-1.961,0.46-4,1.42-5.471,2.729c-1.56,1.36-4.688,0.96-4.84,3.99c0,0.07-0.83,0.29-1.08,0.13
		c-2.64-1.58-5.12-0.75-7.37,0.7c-6.42,4.16-12.738,8.4-19.12,12.64c-1.788,1.181-3.698,2.23-5.27,3.671
		c-1.939,1.789-4.55,3.229-4.62,6.5c-0.01,0.89-1.05,1.72-1.47,2.659c-2.87,5.92-4.15,12.2-4.1,18.75
		c0.05,10.722-1.4,21.222-4.771,31.41c-2.62,7.78-5.689,15.42-8.61,23.08c-0.67,1.69-0.6,10.19-0.39,10
		c0.08,0.271,0.229,0.53,0.18,0.79c-0.108,0.71-0.09,1.51-0.43,2.13c-2.11,3.73-4.14,7.49-6.479,11.12
		c-3.642,5.63-7.422,11.21-11.32,16.71c-2.95,4.12-6.2,8.11-9.4,12.08c-1.199,1.5-2.68,2.771-4.04,4.14
		c-0.29,0.28-111.479,81.66-108.688,83.84c0.33,0.28,0.02,1.37,0.01,2.062c-0.439-0.12-0.88-0.2-1.32-0.34
		c-0.81-0.271-1.608-0.722-2.479-0.84c-0.48-0.07-1.01,0.38-1.521,0.6c1.15,1.39-1.5,3.1,0.342,4.5c0.1,0.08-0.41,1.53-0.82,1.62
		c-2.85,0.72-0.6,1.7-0.15,2.55c0.12,0.229,0.38,0.42,0.59,0.65c-0.278,0.05-0.63,0.01-0.818,0.188c-0.38,0.34-0.83,0.76-0.9,1.18
		c-0.21,1.15-0.22,2.29-0.29,3.432c0,0.13,0.26,0.27,0.42,0.41c-2.25-0.37-1.09,1.64-1.6,2.448c-0.65,0.932-0.642,2.521-0.392,3.722
		c0.472,1.96,1.791,3.778,2.021,5.729c0.91,8.88,7.021,14.36,13.08,19.82c3.109,2.81,6.64,5.16,9.859,7.84
		c0.699,0.57,0.931,1.7,1.521,2.45c0.312,0.39,0.938,0.62,1.51,0.74c0.432,0.108,1.08-0.33,1.392-0.13
		c2.85,1.698,5.52,3.75,6.778,6.898c1.12,2.76,2.142,5.66,2.62,8.602c1.28,7.93,2.28,15.898,3.221,23.89
		c0.239,1.92,0.041,3.979-0.489,5.83c-0.23,0.648-2.771,9.71-2.87,9.85c-0.69,1.99-1.38,4-2.29,5.88
		c-3.91,8.42-39.29,76.552-39.38,77.08c-0.182,0.94,0.029,2.45,0.648,2.92c0.57,0.45,1.972-0.238,3.012-0.409
		c-3.052,7.601-11.41,16.311-4.24,21.311c1.32,0.92,29.35,23.54,49.09,44.16c-14.13,7.79-9.71,7.2-31.28,4.479
		c-21.45-3.55-22.108-29.75-43.38-19.12c-0.37,0.182-9.688-10.18-9.78-10.568c-9.738,6.738-4.528-5.521-5.55-5.46
		c-0.33,0.028,1.45-8.08,3.562-14.352c2.829-8.479,11.358-43.77,12-52.88c0.09-1.109,5.618-19.13,5.22-20.229
		c-0.4-1.16-2.04-2.142-3.38-2.65c-1.5-0.6-3.972,0.13-2.79-2.96c0.17-0.46-0.32-1.2-0.48-1.83c-0.43,0.31-0.84,0.62-1.26,0.9
		c-0.24,0.118-0.47,0.198-0.71,0.31c-0.09-0.35-0.04-0.8-0.25-1.04c-0.46-0.6-1-1.17-1.57-1.64c-0.648-0.521-1.368-1.012-2.108-1.42
		c-0.73-0.4-1.5-0.61-2.21-1.021c-1.24-0.66-3.011-1.12-3.49-2.16c-0.69-1.47-1.32-0.43-1.979-0.46
		c-0.521-0.04-1.051-0.08-1.579-0.108c-0.591-0.07-27.07,4.658-27.65,4.83c-52.1,63.438,27.25,70.648,17.729,84.5
		c-3.521,5.09-38.801,2.77-38.801,2.77c-27.25-13.31-7.41-24.02-27.148-27.46c-2.48-0.42-0.82-10.11-4.67-15.81
		c-7.682,6.71,5.68-37.852,25.729-58.21c-0.71-1.812,1.98-3.49,0.891-5.062c-1.199-1.77,5.091-0.99,3.5-2.47
		c-1.329-1.2-0.771-1.95-0.819-2.271c-0.09-0.43-6.562-2.71-6.82-3.64c-0.76-2.979-2.6-4.94-4.75-6.85
		c-0.64-0.54-1.03-1.342-1.53-2.03c-1.77-2.47-3.528-4.97-5.278-7.45c-0.642-0.9-1.222-1.85-1.921-2.74
		c-1.5-2-3.021-4.04-4.579-6.02c-0.04-0.03-0.74,0.229-0.88,0.5c-0.48,0.85-0.222,2.49-2.16,1.688c-0.182-0.08-1,1.28-1.51,2.04
		c-0.222,0.37-0.312,0.82-0.5,1.222c-0.222-0.352-0.44-0.7-0.712-1.021c-0.438-0.52-0.92-1.04-1.358-1.56
		c-0.54,0.75-1.09,1.55-1.59,2.3c-0.142,0.229-0.25,0.54-0.37,0.8c-1.08-0.59-1.11-0.59-1.432,0.94
		c-0.3,1.479-0.738,2.148-2.38,1.05c-2.13-1.4-4.46-0.32-5.279,2.148c-0.271,0.87-0.641,1.75-1.051,2.57
		c-0.22,0.37-0.67,0.64-1,0.94c-0.02-0.4-0.01-0.802-0.068-1.21c-0.012-0.222-0.07-0.49-0.142-0.73c-0.21,0.2-0.608,0.37-0.688,0.62
		c-0.67,2.85-3.852,1.91-5.392,3.5c-0.08,0.07-0.67-0.45-1.068-0.521c-0.421-0.06-0.91,0.012-1.341,0.142
		c-0.051,0-0.051,0.54,0.029,0.79c0.15,0.568,0.59,1.35,0.38,1.58c-0.64,0.729-1.489,1.31-2.31,1.858
		c-0.34,0.222-0.99,0.17-1.22,0.432c-0.961,1.35-1.61,3.648-2.82,3.92c-2.11,0.5-1.74,2.52-3.141,3.37
		c-1.709,0.988-3.011,2.688-4.431,4.108c-5.05,4.91-9.938,9.96-15.17,14.7c-1.96,1.82-25.56,16.771-25.729,16.88
		c-2.36,1.3-5.53,2.13-6.87,4.15c-11.11,4.3-30.75,6.938-35.49,7.52c-47.26,5.92-68.54-19.38-69.71-20.84
		c-22.95-28.82,33.29,13.54,54.03,10.11c79.92-14.062,107.21-78.92,118.71-94.78c0.1-0.16,11.86-14.41,11.63-15.54
		c-0.24-0.979-1.83-1.97-1.66-2.65c0.45-1.75,1.54-3.318,2.46-4.908c0.19-0.36,0.762-0.512,1.182-0.762
		c-0.271-0.37-0.552-0.729-0.802-1.108c-0.09-0.15-0.21-0.432-0.148-0.54c0.93-1.8,1.92-3.54,2.8-5.36
		c0.22-0.46-0.04-1.14,0.14-1.63c0.512-1.39,1.2-2.729,1.74-4.11c0.96-2.5,1.86-5.02,2.71-7.528c0.07-0.3-0.819-0.841-0.77-1.15
		l85.158-146.74l40.48-52.159c3.61-9.399,4.27-9.421,7.68-16.59c1.852-3.939,3.45-8,5.381-11.899
		c0.811-1.681,2.199-3.09,3.329-4.641c1.352,1.09,1.932-0.229,2.25-0.979c0.4-0.95,0.562-2.15,0.341-3.15
		c-0.311-1.27,1.67-6.93,2.891-7.42c0.12-0.05,0.318-0.02,0.449,0.05c1.649,0.681,2.721-0.01,3.149-1.949
		c1.062-4.591-1.979-8.04-3.34-11.91c-0.78-2.29-3.22-4.69-2.77-6.521c0.92-3.74-2.712-4.1-3.642-6.34
		c-1.149-2.61-3.59-4.64-5.1-7.1c-0.62-0.971-0.312-2.48-0.471-3.73c-0.051-0.28-0.42-0.53-0.67-0.78
		c-0.891,2.32-0.511-0.13-0.569-0.189c-0.72-1.26-0.69-1.09,0.45-1.41c0.688-0.19,1.238-0.99,1.85-1.51
		c-0.76-0.561-1.57-1.11-2.35-1.681c-0.45-0.3-1.2-0.55-1.312-0.96c-1.13-4.159-2.3-8.33-3.13-12.55
		c-0.23-1.189,0.569-2.6,0.92-3.88c0.05-0.189,0.18-0.34,0.15-0.49c-0.12-1.3-0.29-2.61-0.471-3.89
		c-1.051-7.09-0.601-14.1,1.069-21.03c0.46-1.92,0.33-3.95,0.76-5.88c0.23-1.1,0.921-2.1,1.421-3.16
		c0.149-0.28,0.319-0.54,0.459-0.83c-0.26,0.06-0.63,0.27-0.789,0.18c-0.439-0.4-1.131-0.83-1.199-1.33
		c-0.29-1.73-0.7-3.52-0.44-5.24c0.48-3.14,1.46-6.18,2.05-9.31c0.25-1.11,0.222-2.34,0.021-3.46c-0.33-1.81-1.38-3.59-1.311-5.34
		c0.159-3.07-2.399-3.93-3.949-5.5c-1.96-2-3.721-3.77-2.45-6.88c0.3-0.7,0.16-1.87-0.312-2.48c-3.948-5.5-3.31-11.1-0.43-16.73
		c2.141-4.23,5.99-5.18,9.95-2.68c1.8,1.15,3.68,2.2,5.649,3.04c1.971,0.85,3.779,0.5,5.609-1c2.16-1.73,4.65-3.16,7.141-4.44
		c2.421-1.21,5.079-0.8,6.641,1.271c0.818,1.08,0.53,3.21,0.26,4.79c-0.38,2.65-0.9,5.31,2.08,6.69c1.26,0.59,2.89,0.3,4.28,0.57
		c2.729,0.55,5.39,1.5,8.108,1.76c1.62,0.15,3.302-0.74,4.95-1.17c0.04,0,0.101-0.15,0.101-0.15c2.459,1.12,4.011-2.57,6.811-1.2
		c1.12,0.55,3.069-0.75,4.63-0.94c5.14-0.58,9.8,1.41,14.601,2.69c1.92,0.52,3.939,0.85,5.829,1.51c1.23,0.41,2.4,1.14,3.44,1.9
		c1.85,1.28,3.58,2.71,5.39,4.03c0.91,0.64,1.83,1.44,2.851,1.71c6.301,1.54,12.649,1.1,19.029,0.4c1.78-0.2,3.61,0.08,5.36-0.12
		c1.229-0.16,2.39-0.93,3.66-1.14c4.55-0.9,9.14-1.65,13.729-2.44c2.63-0.44,4.852-0.3,6.102,2.65c1.27,2.9,4.068,2.78,6.729,2.66
		h0.03c1.05,0.69,2.28,1.18,3.09,2.1c1.01,1.09,1.09,7.1,1.08,7.31c-0.07,1.89,0.26,3.96-0.46,5.57c-0.78,1.82-2.05,2.07-3.96,0.14
		c-0.05-0.05-0.09-0.09-0.141-0.13c0.041,0.23,0.061,0.47,0.069,0.7c0.392,7.38-8.67,13.88-20.239,14.51
		c-0.591,0.03-1.171,0.05-1.75,0.05c1.101,2.17,3.279,3.84,4.971,5.71c0.38,0.439,1.199,0.77,1.22,1.21
		c0.14,2.91,2.14,1.38,3.45,1.51c0.76,0.07,1.46,0.17,2.16,0.25c-0.262,0.65-0.36,1.46-0.852,1.94c-3.02,3.18-6.109,6.36-9.25,9.42
		c-0.568,0.57-1.56,0.73-2.359,1.05c-0.289,0.09-0.811,0.19-0.829,0.32c-0.08,2.83-8.13,3.12-8.53,3.11
		c-1.29,0.01-2.43-0.25-2.021,1.83c0.23,1.16-0.488,2.47-0.56,3.71c-0.01,0.79,0.3,1.62,0.64,2.34c0.66,1.53,1.48,3.02,2.25,4.5
		c0.2,0.32,0.53,0.72,0.892,0.77c1.818,0.24,3.67,0.21,5.438,0.65c1.11,0.28,2.01,1.43,3.141,1.8c1.511,0.53,3.221,0.53,4.771,0.971
		c4.28,1.21,8.47,2.64,12.771,3.8c1.479,0.399,3.108,0.14,4.68,0.32c3.28,0.399,6.55,1.21,9.859,1.279
		c3.649,0.061,7.381-0.27,10.961-0.89c3.829-0.64,7.55-1.88,11.358-2.8c1.5-0.36,3.32-0.051,4.54-0.78
		c4.15-2.49,8.141-5.33,12.15-8.03c9.25-6.2,16.79-14.35,24.87-21.85c2.898-2.67,5.5-5.62,8.239-8.47
		c0.319-0.32,0.671-0.68,0.739-1.09c0.49-2.35,2.511-2.9,4.29-3.73c0.21-0.07,0.351-0.3,0.48-0.46c-1.73-1.53,0.06-1,0.71-1.26
		c0.51-0.2,1.318-0.63,1.3-0.96c0.109-3.19,1.96-5.02,4.601-6.33c0.319-0.15,0.409-0.8,0.529-1.23c0.11-0.5-0.04-1.33,0.25-1.51
		c1.7-1.01,1.32-2.94,2.15-4.33c0.398-0.75,1.609-1.11,2.43-1.66c0.7-0.47,1.42-0.91,1.971-1.51c0.13-0.1-0.471-0.87-0.771-1.36
		c-0.07-0.15-0.19-0.44-0.15-0.46c0.562-0.32,1.29-0.48,1.69-0.94c1.02-1.11,1.898-2.34,2.79-3.54c0.05-0.03-0.04-0.19-0.08-0.29
		c2.399-0.771,2.13-5.1,5.771-4.29c0.289,0.06,0.959-0.43,1.051-0.75c0.51-2.1,1.6-2.61,3.75-1.92c1.01,0.33,2.34-0.32,3.55-0.53
		c0.08-0.01,0.14-0.21,0.229-0.32c-2.261-0.71,0.42-0.59,0.189-1.06c-0.32-0.71-0.45-1.48-0.65-2.22
		c-0.279-0.86-0.83-1.771-0.699-2.6c0.051-0.4,1.34-0.67,2.08-0.96c0.189-0.1,0.551-0.08,0.641-0.229
		c1.279-1.88,2.55-3.78,3.81-5.66c0.94-1.34,1.841-2.67,2.74-4c1.41-2.05,3.069-3.99,4.16-6.22c1.29-2.69,2.14-5.63,3.109-8.49
		c0.13-0.49-0.579-1.33-0.38-1.76c1.399-2.9,3.069-5.68,4.329-8.62c0.551-1.23-0.029-2.88,0.44-4.11
		c1.279-3.57,2.77-7.07,4.29-10.53c1.41-3.25,3.33-6.32,4.319-9.69c1-3.34,1.811-6.32,5.55-7.88c2.011-0.83,3.489-2.83,5.211-4.33
		c0.149-0.13,0.459-0.31,0.459-0.31c0.2,0.2,0.311,0.52,0.53,0.67c1.38,1.07,2.771,2.19,4.319,2.96c0.25,0.16,1.28-1.42,2.069-2.06
		c1.771-1.32,3.471-3.08,5.471-3.57c0.819-0.21,3.061-2.35,4.13,0.33c0.011,0.03,0.521-0.08,0.8-0.14
		c1.53-0.31,1.791,0.2,2.021,1.66c0.319,1.96,1.04,3.87,1.689,5.81c0.271,0.93,0.819,1.78,1.039,2.71
		c0.291,1.25,1.021,2.95-1.64,2.34c-0.24-0.05-1.04,0.78-0.96,1.04c0.33,1.35,0.649,2.8,1.38,3.98c0.45,0.76,1.521,1.31,2.391,1.67
		c0.84,0.37,1.92,0.25,2.801,0.57c0.3,0.13,0.55,1.16,0.35,1.47c-0.42,0.68-1.12,1.62-1.75,1.65
		C1445.87,174.39,1443.96,175.13,1444.4,176.98z"/>
</g>
<g>
	<path d="M1011.182,545.741c58.957,0,75.869-1.088,75.869-40.376c0-39.857-16.913-40.963-75.869-40.963V545.741z M1011.182,652.188
		l-0.554,106.985H871.986V360.71h139.74c169.763,0,209.056,21.827,209.056,145.729
		C1220.782,629.797,1183.117,651.641,1011.182,652.188"/>
	<path d="M1438.071,606.331l-20.746-117.896l-26.205,117.896H1438.071z M1454.991,702.948h-84.603l-12.553,56.226h-146.291
		l144.1-398.463h129.908l137.563,398.463h-158.295L1454.991,702.948z"/>
	<polygon points="2165.732,360.704 2038.001,759.174 1924.458,759.174 1874.782,561.025 1825.122,759.174 1711.594,759.174 
		1584.947,360.704 1737.786,360.704 1777.097,584.506 1822.937,360.704 1939.745,360.704 1985.59,584.506 2024.9,360.704 	"/>
	<path d="M2316.991,622.71c0,39.84,19.651,45.836,39.293,45.836c22.385,0,41.482-5.996,41.482-25.095
		c0-65.506-206.303,13.635-206.864-171.407c0.562-77.491,46.941-123.886,170.848-123.886c129.363,0,170.846,40.93,170.846,142.458
		h-129.902c0-32.21-16.391-39.841-36.03-39.841c-19.653,0-36.018,7.631-36.018,26.205c0,54.588,209.053-3.29,209.053,160.462
		c0,86.793-43.67,133.741-177.948,133.741c-137.55,0-175.77-41.496-175.77-148.473H2316.991z"/>
	<polygon points="913.756,873.548 913.756,900.004 959.481,900.004 959.481,931.836 913.756,931.836 913.756,983.143 
		871.994,983.143 871.994,838.957 969.434,838.957 969.434,873.548 	"/>
	<path d="M1124.113,911.144c0-32.623-5.572-40.386-20.683-40.386c-15.311,0-20.879,7.763-20.879,40.386
		c0,32.419,5.569,40.177,20.879,40.177C1118.541,951.32,1124.113,943.563,1124.113,911.144 M1039.989,911.144
		c0-56.874,20.88-76.362,63.441-76.362s63.444,19.488,63.444,76.362c0,56.865-20.883,76.167-63.444,76.167
		S1039.989,968.009,1039.989,911.144"/>
	<path d="M1295.425,906.167c22.471,0,30.419-0.593,30.419-17.694c0-17.295-7.948-17.907-30.419-17.907h-6.967v35.602H1295.425z
		 M1327.034,983.127l-18.093-44.93c-4.174,0.195-8.761,0.195-13.517,0.195h-6.967v44.734h-41.766v-144.17h50.12
		c57.876,0,70.001,8.757,70.001,49.722c0,23.453-3.98,36.175-18.5,42.962l25.263,51.486H1327.034z"/>
	<path d="M1617.249,927.846l-11.934-48.523l-13.137,48.523H1617.249z M1624.8,959.081h-40.977l-6.554,24.062h-43.366l52.928-144.201
		h39.161l51.511,144.201h-46.731L1624.8,959.081z"/>
	<path d="M1896.689,953.511c25.067,0,30.254-3.185,30.254-15.118c0-12.528-5.187-15.899-30.254-15.899h-6.749v31.018H1896.689z
		 M1889.94,868.586v27.242h6.749c21.097,0,26.069-2.974,26.069-13.523c0-10.738-4.973-13.719-26.069-13.719H1889.94z
		 M1968.104,942.55c0,28.659-8.159,40.788-71.798,40.788h-48.119V838.759h49.723c53.284,0,64.223,11.936,64.223,38.78
		c0,14.716-4.171,25.057-19.082,31.011C1964.126,914.722,1968.104,926.457,1968.104,942.55"/>
	<polygon points="2151.622,948.535 2151.622,983.143 2047.611,983.143 2047.611,838.957 2150.028,838.957 2150.028,873.548 
		2089.372,873.548 2089.372,894.638 2140.094,894.638 2140.094,925.669 2089.372,925.669 2089.372,948.535 	"/>
	<path d="M2463.598,906.167c22.463,0,30.418-0.593,30.418-17.694c0-17.295-7.955-17.907-30.418-17.907h-6.96v35.602H2463.598z
		 M2495.209,983.127l-18.101-44.93c-4.171,0.195-8.744,0.195-13.511,0.195h-6.96v44.734h-41.782v-144.17h50.131
		c57.855,0,69.983,8.757,69.983,49.722c0,23.453-3.964,36.175-18.476,42.962l25.266,51.486H2495.209z"/>
	<path d="M545.379,134.884c-2.858-0.503-5.858-1.691-6.822-5.163c-0.138-0.468-0.038-0.857,0.265-1.259
		c0.823-1.048,3.103-1.768,5.572-1.768c0.33,0,0.62,0.031,0.913,0.056c0.771,0.451,1.405,1.088,1.832,1.863
		c-0.454-0.331-1.009-0.538-1.604-0.538c-0.727,0-1.367,0.282-1.853,0.737l2.17,1.852l-3.013-0.147
		c-0.011,0.079-0.024,0.147-0.024,0.23c0,1.475,1.223,2.658,2.721,2.658c0.679,0,1.298-0.251,1.781-0.66
		C546.901,133.635,546.227,134.381,545.379,134.884 M889.767,57.376c0-1.606-1.463-2.559-2.935-3.434
		c-1.456-0.886-2.92-1.681-2.92-2.955c0-1.294-0.155-2.879-0.647-4.33c-0.492-1.428-1.302-2.713-2.6-3.357
		c-1.298-0.629-3.088-1.429-4.883-2.555c-1.787-1.119-3.568-2.559-4.883-4.478c-1.284-1.918-4.056-0.805-6.498,0.8
		c-2.428,1.595-4.553,3.678-4.553,3.678s-0.475-0.482-1.536-1.119c-1.061-0.633-2.683-1.439-4.963-2.083
		c-2.266-0.637-6.501,1.604-10.558,4.235c-4.06,2.652-7.962,5.686-9.595,6.649c-1.618,0.955-2.441,3.833-2.999,6.872
		c-0.568,3.041-0.899,6.247-1.553,7.833c-0.647,1.612-3.248,4.808-6.089,7.929c-2.851,3.113-5.93,6.153-7.559,7.441
		c-1.622,1.274-2.762,4.153-3.981,8.316c-1.222,4.153-2.517,9.588-4.466,15.99c-1.953,6.389-5.534,12.483-9.598,17.584
		c-4.06,5.127-8.605,9.287-12.508,11.853c-3.905,2.541-10.086,9.273-17.883,18.303c-7.8,9.04-17.232,20.391-27.636,32.237
		c-10.403,11.835-22.102,22.402-32.743,30.78c-10.652,8.403-20.246,14.647-26.414,17.85c-6.178,3.191-14.963,4.466-24.15,4.79
		c-9.177,0.33-18.765-0.323-26.572-0.954c-7.797-0.644-13.485-2.885-18.117-5.204c-4.632-2.321-8.214-4.707-11.785-5.681
		c-3.581-0.951-5.354-1.275-6.66-1.35c-1.298-0.08-2.125,0.075-3.736,0.075c-1.632,0-2.111-0.793-2.524-1.843
		c-0.41-1.035-0.726-2.316-2.028-3.278c-1.301-0.951-1.14-3.671-0.647-6.15c0.493-2.48,1.295-4.729,1.295-4.729
		c3.251,0.32,5.858,0,8.292-0.875c2.428-0.875,4.711-2.324,7.312-4.247c2.6-1.91,5.042-3.991,7.965-6.394
		c0.568-0.455,1.15-0.937,1.746-1.419c0.08-0.063,0.148-0.118,0.228-0.166c0.623-0.52,1.271-1.023,1.963-1.567
		c0.014-0.013,0.038-0.027,0.065-0.038c1.418-1.129,2.972-2.314,4.71-3.571c0.703-0.507,1.416-1.026,2.173-1.557
		c3.637-2.554,7.483-6.532,10.827-10.578c0.162-0.176,0.303-0.362,0.452-0.538c0.674-0.837,1.339-1.657,1.977-2.479
		c3.808-4.952,6.581-9.436,6.901-10.711c0.331-1.288,0.81-4.642,1.298-8.636c0.486-4.006,0.981-8.644,1.298-12.477
		c0.338-3.837,0.172-6.723-0.396-8.957c-0.571-2.25-1.556-3.854-2.851-5.121c-1.302-1.282-3.413-1.446-5.603-1.282
		c-2.205,0.166-4.47,0.644-6.103,0.644c-1.619,0-7.635,0.793-15.28,1.75c-7.632,0.964-16.902,2.079-25.019,2.723
		c-8.137,0.648-12.528,0.155-15.854-0.644c-3.334-0.795-5.613-1.925-9.512-2.554c-3.898-0.637-5.683-2.559-6.902-4.478
		c-1.222-1.919-1.869-3.847-3.501-4.484c-1.619-0.638-5.521-1.749-10.321-2.954c-4.793-1.192-10.479-2.48-15.683-3.434
		c-5.2-0.975-10.238-0.319-14.381,0.631c-4.15,0.953-7.404,2.248-9.022,2.559c-1.632,0.32-4.267,0.584-6.987,0.599
		c-2.738,0.023-5.548-0.19-7.497-0.834c-1.952-0.636-3.358-2.81-4.191-5.64c-0.847-2.821-1.129-6.271-0.823-9.48
		c0.155-1.732,0.688-3.265,0.727-4.42c0.044-1.146-0.396-1.893-2.204-2.085c-3.382-0.331-6.116,0.902-8.369,2.613
		c-2.255,1.701-4.029,3.861-5.492,5.387c-1.471,1.518-2.749,4.077-4.125,5.637c-1.368,1.57-2.814,2.149-4.602-0.307
		c-1.622-2.211-4.38-5.407-7.301-8.131c-2.927-2.703-6.019-4.932-8.302-5.199c-2.27-0.266-4.395-0.237-6.171,1.542
		c-1.794,1.761-3.251,5.293-4.229,12.002c-0.971,6.712-0.323,11.674,1.14,15.687c1.459,3.991,3.74,7.025,6.013,9.911
		c2.28,2.873,3.575,4.962,4.308,7.201c0.733,2.246,0.885,4.635,0.885,8.161c0,3.517-0.151,8.145-1.047,14.47
		c-0.898,6.323-2.521,14.312-5.448,24.541c-2.92,10.242-3.251,19.364-2.606,28.331c0.658,8.939,2.29,17.746,3.254,27.344
		c0.985,9.587,3.582,17.748,6.013,24.471c2.438,6.718,4.721,12.002,5.039,15.834c0.33,3.84,0,8.314-1.051,13.114
		c-1.054,4.811-2.848,9.918-5.444,15.032c-2.607,5.12-7.646,14.726-12.518,23.683c-4.876,8.959-9.588,17.277-11.537,19.833
		c-1.949,2.559-5.045,6.876-8.213,11.593c-3.176,4.729-6.42,9.832-8.692,13.996c-2.283,4.16-5.534,8.638-9.908,13.757
		c-4.391,5.122-9.921,10.887-16.757,17.594c-13.988,13.776-29.757,32.492-45.36,52.07c-15.59,19.596-31.028,40.063-44.353,57.343
		c-13.331,17.27-25.852,42.546-36.41,66.448c-5.379,12.168-8.682,24.437-11.344,35.086l-0.692,4.094
		c-2.018,5.079-7.938,9.395-13.12,9.794c-7.745,0.573-41.821,5.961-57.473,6.337c-0.996,0.024-1.96,0.024-2.92,0.024
		c-2.242,0-4.391-0.063-6.405-0.181l-0.493-0.04c-10.638-0.699-23.893-1.557-43.129-10.027
		c-7.659-3.369-23.032-11.271-40.016-26.338c-14.064-12.478-19.354-19.729-28.973-32.919c0,0-2.296-3.162-3.45-4.732
		C21.814,542.801,5.037,522.59,2.195,521.127c-1.063-0.52-1.753-0.68-2.146-0.727c-0.045,0.178-0.068,0.438-0.045,0.75
		c0.348,2.148,9.264,27.427,14.884,38.996c6.212,12.734,16.737,31.666,27.674,46.564c5.375,7.305,26.533,31.042,42.43,41.24
		c9.75,6.254,36.283,21.102,72.067,23.709c3.66,0.271,7.586,0.397,11.646,0.397c1.563,0,3.144-0.022,4.763-0.047
		c13.103-0.342,42.774-1.232,56.715-2.477l-0.331,1.952c1.288,4.111,3.113,11.352,6.126,16.265c0.399,3.586,1.756,3.857,2,9.234
		c0.292,6.452,4.329,16.841,4.329,16.841c0.985-2.665,3.344-2.561,5.101,2.98c2.597,8.216,2.713,8.54,6.825,11.097
		c-0.289-1.427-0.991-4.46,2.58-0.929c0.685,1.051,1.346,1.806,1.89,2.285c5.772,6.388,11.213,10.196,16.427,12.19
		c0.265,0.451,0.52,0.92,0.761,1.401c3.038,9.157,5.238,19.118,5.379,23.564c0.189,6.337-4.642,16.404-3.526,21.053
		c1.126,4.666,2.944,10.432,0.678,17.945c-2.256,7.5-9.566,27.504-11.823,30.793c-2.255,3.316-11.181,11.258-8.064,19.603
		c3.126,8.348,7.321,17.813,13.699,24.705c9.929,10.689,14.719,17.79,19.357,30.813c4.646,13.032,6.134,18.057,8.134,18.989
		c4.804,2.268,7.879-0.125,18.483,5.117c4.525,2.243,18.438,0.966,19.688,0.016c1.264-0.936,2.376-1.915,5.19-3.008
		c9.535-3.682,6.735-3.936,7.104-7.073c0.337-2.771,1.064-5.981-3.509-8.939c0,0-2.934-3.613-5.655-3.396
		c-2.906,0.264-4.129-2.095-10.204-3.782c-6.233-1.708-8.74-7.101-13.027-11.336c-4.281-4.235-12.016-13.346-14.405-17.062
		c-2.39-3.704-4.608-9.177-5.734-13.808c-1.13-4.666,0.613-6.613,0.479-9.437c-0.117-2.81,1.884-11.735,2.338-16.593
		c0.447-4.859,7.015-25.303,8.888-28.619c1.863-3.349,9.963-23.271,12.243-26.924c2.293-3.658,7.442-17.206,12.28-23.074
		c2.276-2.758,4.263-5.379,5.747-7.396c6.964,1.333,13.283,3.092,17.646,5.75c13.441,8.082,39.879,21.328,44.218,29.423
		c4.329,8.106,6.505,20.897,8.23,27.74c1.736,6.812,2.173,16.63,2.173,22.181c0,5.514-6.939,30.265-7.804,39.224
		c-0.875,8.968-6.938,20.914-7.373,28.17c-0.427,7.229,9.102,15.338,15.61,21.736c6.505,6.399,38.143,21.264,42.472,23.036
		c25.139,10.238,41.218,21.896,42.482,22.181c21.764,4.821,30.697,9.354,37.171,10.807c1.805,1.246,4.136,2.408,6.402,2.952
		c3.988,0.961,17.646,0.413,19.357,0.08c1.714-0.354,4.394-0.906,5.733-1.606c1.326-0.699,11.354-4.661,12.594-6.815
		c1.229-2.177,3.023-6.956,2.662-10.365c-0.354-3.396-3.485-10.754-7.483-12.941c-4.001-2.203-8.954-2.527-10.383-3.303
		c-1.329-0.713-2.311-3.733-6.092-4.824c-4.973-4.353-12.59-3.031-15.324-3.42c-3.024-0.413-7.367-0.413-11.698,0.857
		c-4.339,1.283-12.356,2.563-19.505,2.139c-2.597-0.169-33.814-16.206-40.32-21.337c-6.498-5.117-13-8.113-16.457-18.763
		c-3.468-10.66,0.43-40.525,0.43-51.177c0-10.672,9.102-26.882,12.566-37.972c3.46-11.091,6.498-29.005,7.8-41.378
		c1.305-12.364,4.342-23.022,5.204-32.403c0.875-9.379-6.505-30.721-8.661-37.105c-2.176-6.416-13.44-20.471-20.38-31.573
		c-6.925-11.104-24.268-39.688-27.305-44.789c-1.178-1.992-4.191-8.682-7.646-16.504c2.29-4.851,5.469-9.382,8.947-13.57
		c5.851-7.045,18.207-16.581,30.312-25.17c12.115-8.575,23.975-16.208,28.858-19.409c4.866-3.185,22.26-9.483,42.018-20.415
		c19.735-10.936,41.841-26.509,56.153-48.25c9.46-14.394,21.496-38.444,31.393-59.765c9.908-21.341,17.701-39.948,18.666-43.466
		c0.985-3.514,1.59-11.926,1.973-20.202c0.389-8.28,0.544-16.437,0.63-19.464c0.079-3.022,1.536-6.694,3.316-10.11
		c1.759-3.394,3.829-6.521,5.131-8.437c1.302-1.922,10.403-7.042,19.835-12.006c9.419-4.948,19.179-9.752,21.782-11.041
		c2.6-1.271,3.661-1.153,4.459-0.921c0.809,0.226,1.326,0.557,2.848-0.293c1.95-1.088,7.607-4.304,13.176-7.562
		c5.562-3.265,11.055-6.564,12.673-7.845c1.632-1.279,25.029-32.637,48.436-64.141c23.404-31.513,46.814-63.192,48.436-65.096
		c1.629-1.926,3.251-2.25,4.883-2.168c1.618,0.08,3.25,0.562,4.863,0.242c1.636-0.324,2.762-0.961,3.822-1.929
		c1.064-0.951,2.032-2.224,3.33-3.83c1.301-1.604,0.81-3.041-0.155-4.483c-0.985-1.433-2.442-2.879-3.096-4.477
		c-0.647-1.605-1.14-3.034-1.14-4.56c0-1.519,0.492-3.117,1.794-5.039c1.298-1.918,3.089-3.998,4.883-6.239
		c1.787-2.243,3.564-4.636,4.863-7.195c1.305-2.555,5.379-8,9.838-13.441c4.466-5.438,9.353-10.872,12.267-13.431
		c2.934-2.559,8.289-6.078,13.496-9.593c5.2-3.534,10.242-7.043,12.518-9.609c2.27-2.554,2.923-5.434,3.013-8.082
		C890.255,61.388,889.767,58.988,889.767,57.376"/>
	<path d="M888.699,341.501c0.39-3.822-3.888-6.805-7.635-8.462c-3.76-1.646-7.697-1.39-12.355-0.564
		c-4.656,0.826-20.442,8.293-23.152,9.319c-2.714,1.02-8.992-1.53-12.949-1.261c-3.936,0.251-25.084,9.126-36.469,11.875
		c-11.396,2.748-23.16,2.874-27.047,2.505c-3.875-0.389-17.646,6.634-25.153,9.75c-7.5,3.127-51.663,20.051-57.166,22.711
		c-5.493,2.701-17.911,2.756-19.798,1.939c-1.87-0.837-16.461-37.609-16.461-37.609s-1.646,9.856-0.707,13.428
		c0.941,3.583-1.022,3.747-0.757,5.965c0.265,2.228,5.152,6.605,3.62,11.16c-0.469-2.621-3.647-5.255-4.68-4.191
		c-1.894,1.939,4.301,9.546,3.01,12.484c0,0-0.926-3.638-3.34-5.641c-2.108-1.752-1.977,0.049-0.53,3.651
		c2.479,6.181,0.097,10.452,0.097,10.452s-5.456-9.212-3.44-0.016c1.353,6.21-0.42,10.734-0.42,10.734s-2.366-12.231-8.265-5.481
		c-2.407,2.748-20.369,37.092-20.369,37.092s14.519,4.732,19.557,6.505c5.056,1.777,8.292,8.531,10.559,11.953
		c2.266,3.454,9.776,0.313,14.436-0.52c4.656-0.837,35.102-17.79,41.896-20.331c6.798-2.57,37.051-24.046,48.171-30.678
		c11.113-6.619,34.334-16.586,37.709-17.543c3.354-0.946,5.62,2.487,7.559,2.669c1.949,0.207,9.643,1.582,8.606-1.088
		c-1.033-2.666,2.772-8.093,2.772-8.093c7.697,1.413,27.557-1.166,30.863-1.488c3.306-0.315,7.493-3.127,12.8-3.897
		c5.303-0.764,15.535,1.526,19.733-1.284c4.201-2.796,2.066-7.511,4.383-11.147c2.339-3.62,6.344-4.522,8.596-7.518
		c2.276-2.987,4.997-4.009,6.013-7.778C889.418,347.345,888.32,345.324,888.699,341.501"/>
	<polygon points="2335.243,948.535 2335.243,983.143 2231.25,983.143 2231.25,838.957 2333.653,838.957 2333.653,873.548 
		2272.995,873.548 2272.995,894.638 2323.717,894.638 2323.717,925.669 2272.995,925.669 2272.995,948.535 	"/>
</g>
</svg>
