<?xml version="1.0" encoding="utf-8"?>
<!-- Generator: Adobe Illustrator 16.0.0, SVG Export Plug-In . SVG Version: 6.00 Build 0)  -->
<!DOCTYPE svg PUBLIC "-//W3C//DTD SVG 1.1//EN" "http://www.w3.org/Graphics/SVG/1.1/DTD/svg11.dtd">
<svg version="1.1" id="Layer_1" xmlns="http://www.w3.org/2000/svg" xmlns:xlink="http://www.w3.org/1999/xlink" x="0px" y="0px"
	 width="2541.76px" height="1024px" viewBox="0 0 2541.76 1024" enable-background="new 0 0 2541.76 1024" xml:space="preserve">
<g id="Layer_1_1_" display="none">
	<path display="inline" fill="#249FC3" d="M1412.63,375.76c0.92-0.34,1.84-0.88,2.79-1.01c3.55-0.46,7.15-0.74,10.7-1.21
		c4.51-0.58,24.89,0.41,24.64,1.11c-0.939,2.609-1.779,5.1-5.069,5.989c-0.931,0.23-1.561,2.63-1.82,4.13
		c-0.479,2.75-2.14,4.48-4.29,5.961c-1.07,0.739-18.21,12.279-18.43,11.1c-0.061-0.34-15.07,4.88-17.521,5.14
		c-3.95,0.431-6.12,1.57-6.979,4.54c-0.36,1.38,0.819,3.63-2.15,3.431c-1.689-0.11-3.39-0.261-5.04,0c-2.13,0.31-4.31,0.75-6.3,1.55
		c-1.92,0.79-3.74,2-5.44,3.2c-2.16,1.54-4.17,3.3-6.26,4.93c-4.56,3.56-9.12,7.17-13.72,10.689c-5.141,3.9-10.29,7.71-15.351,11.69
		c-5.14,4.05-10.079,8.43-15.319,12.35c-5.851,4.36-11.98,8.351-17.95,12.57c-3.6,2.561-7.34,4.98-10.55,7.92
		c-3.71,3.351-8.271,3.41-12.65,4.3c-0.17,0.011-0.479-0.42-0.689-0.729c-2.65-4.03-6.82-5.88-11.181-7.3
		c-2.17-0.71-4.63-0.82-6.989-0.94c-2.291-0.13-4.32-2.75-6.801-0.63c-0.06-0.3-0.27-0.62-0.16-0.86
		c0.61-1.77,1.181-3.55,2.011-5.22c8.8,0.92,15.3-63.94,15.52-65.07c0.05-0.189,0.15-0.359,0.23-0.529
		c0.229,0.3,0.529,0.569,0.68,0.87c2.35,4.069,4.56,8.18,7.04,12.149c1.95,3.18,4.189,6.21,6.34,9.24
		c0.771,1.03,5.93,2.41,6.21,2.29c0.96-0.521,2.22-1.12,3.14-0.86c3,0.73,5.181-0.63,7.551-2.08c2.25-1.33,4.859-2.01,7.21-3.22
		c1.67-0.87,2.979-2.33,4.67-3.19c3.819-1.92,7.78-3.59,11.649-5.42c1.41-0.689,2.681-1.72,4.141-2.319
		c2.58-1.12,5.3-1.92,7.88-3.04c0.71-0.311,1.06-1.431,1.72-1.971c1.301-1.029,2.69-1.88,4.021-2.859c2-1.46,3.79-3.351,6.02-4.3
		c2.04-0.86,3.511-4.011,6.521-2.07c0.29,0.229,1.01,0.33,1.09,0.18c1.78-2.649,4.02-0.81,5.85-0.39c2.7,0.59,2.08-1.05,1.561-2.04
		c-1.25-2.23,25.1-6.3,25.52-7.18c0.54-1.221,0.54-3.11,1.471-3.65c4-2.33,8.229-4.32,12.409-6.36c0.36-0.189,0.88-0.09,1.32-0.14
		c-0.03,0.4-0.06,0.78-0.14,1.15"/>
	<path display="inline" fill="#249FC3" d="M1444.4,176.98c0.34,1.37,2.5,2.27,3.869,3.39c0.261,0.18,0.631,0.22,0.971,0.35
		c-0.21,0.26-0.33,0.561-0.57,0.8c-1.09,1.3-1.65,3.45-4.189,2.69c-0.19-0.06-0.71,1.58-1.271,2.31c-0.54,0.74-1.2,1.47-1.97,2.01
		c-1.95,1.35-4.28,2.25-5.87,3.9c-3.41,3.6-6.53,7.44-9.59,11.35c-1.29,1.65-2.04,3.729-3.11,5.57c-0.72,1.18-1.99,2.16-2.27,3.41
		c-0.58,2.56-2.11,3.99-4.09,5.63c-1.78,1.49-6.73,22.25-6.931,22.33c0.13,0.09,0.3,0.18,0.48,0.26c0.39,0.16-3.05,1.79-4.04,2.96
		c-3.69,4.26-7.26,8.67-10.67,13.15c-2.261,2.92-4.25,6.07-6.36,9.12c-1.729,2.5-3.479,5.05-5.229,7.59
		c-3.74,5.55-7.48,11.12-11.19,16.69c-3.82,5.75-7.68,11.46-11.37,17.279c-2.02,3.171-3.76,6.53-5.64,9.771
		c-1.62,2.75-3.19,5.55-4.97,8.229c-3.301,4.95-6.801,9.711-10.041,14.711c-1.289,1.96-1.97,4.329-3.149,6.409
		c-0.95,1.7-1.84,3.69-4.58,1.83c-0.87-0.63-3.66-0.3-3.88,0.24c-0.58,1.47-0.7,3.46-0.19,4.95c0.521,1.57,0.49,1.66-1.159,2.04
		c-1.961,0.46-4,1.42-5.471,2.729c-1.56,1.36-4.689,0.96-4.84,3.99c0,0.07-0.83,0.29-1.08,0.13c-2.64-1.58-5.12-0.75-7.37,0.7
		c-6.42,4.16-12.739,8.4-19.12,12.64c-1.789,1.181-3.699,2.23-5.27,3.671c-1.939,1.789-4.55,3.229-4.62,6.5
		c-0.01,0.89-1.05,1.72-1.47,2.659c-2.87,5.92-4.15,12.2-4.1,18.75c0.05,10.721-1.4,21.221-4.771,31.41
		c-2.62,7.78-5.69,15.42-8.61,23.08c-0.67,1.69-0.6,10.19-0.39,10c0.08,0.271,0.229,0.53,0.18,0.79c-0.109,0.71-0.09,1.51-0.43,2.13
		c-2.11,3.73-4.14,7.49-6.479,11.12c-3.641,5.63-7.421,11.21-11.32,16.71c-2.95,4.12-6.2,8.11-9.4,12.08
		c-1.199,1.5-2.68,2.771-4.04,4.14c-0.29,0.28-111.479,81.66-108.689,83.84c0.33,0.28,0.02,1.37,0.01,2.061
		c-0.44-0.12-0.88-0.2-1.32-0.34c-0.81-0.271-1.609-0.721-2.479-0.84c-0.48-0.07-1.01,0.38-1.521,0.6c1.15,1.39-1.5,3.1,0.341,4.5
		c0.1,0.08-0.41,1.53-0.82,1.62c-2.85,0.72-0.6,1.7-0.15,2.55c0.12,0.23,0.38,0.42,0.59,0.65c-0.279,0.05-0.63,0.01-0.819,0.189
		c-0.38,0.34-0.83,0.76-0.9,1.18c-0.21,1.15-0.22,2.29-0.29,3.431c0,0.13,0.26,0.27,0.42,0.41c-2.25-0.37-1.09,1.64-1.6,2.449
		c-0.65,0.931-0.641,2.521-0.391,3.721c0.471,1.96,1.791,3.779,2.021,5.729c0.91,8.88,7.021,14.36,13.08,19.82
		c3.11,2.81,6.64,5.16,9.86,7.84c0.699,0.57,0.93,1.7,1.52,2.45c0.311,0.39,0.939,0.62,1.51,0.74c0.431,0.109,1.08-0.33,1.391-0.13
		c2.85,1.699,5.52,3.75,6.779,6.899c1.12,2.76,2.141,5.66,2.62,8.601c1.28,7.93,2.28,15.899,3.22,23.89
		c0.24,1.92,0.041,3.979-0.489,5.83c-0.23,0.649-2.771,9.71-2.87,9.85c-0.69,1.99-1.38,4-2.29,5.88
		c-3.91,8.42-39.29,76.551-39.38,77.08c-0.181,0.94,0.029,2.45,0.649,2.92c0.57,0.45,1.971-0.239,3.011-0.41
		c-3.051,7.601-11.41,16.311-4.24,21.311c1.32,0.92,29.35,23.54,49.09,44.16c-14.13,7.79-9.71,7.2-31.28,4.479
		c-21.45-3.55-22.109-29.75-43.38-19.12c-0.37,0.181-9.689-10.18-9.78-10.569c-9.739,6.739-4.529-5.521-5.55-5.46
		c-0.33,0.029,1.45-8.08,3.561-14.351c2.83-8.479,11.359-43.77,12-52.88c0.09-1.109,5.619-19.13,5.22-20.229
		c-0.4-1.16-2.04-2.141-3.38-2.65c-1.5-0.6-3.971,0.13-2.79-2.96c0.17-0.46-0.32-1.2-0.48-1.83c-0.43,0.31-0.84,0.62-1.26,0.9
		c-0.24,0.119-0.47,0.199-0.71,0.31c-0.09-0.35-0.04-0.8-0.25-1.04c-0.46-0.6-1-1.17-1.57-1.64c-0.649-0.521-1.369-1.011-2.109-1.42
		c-0.73-0.4-1.5-0.61-2.21-1.021c-1.24-0.66-3.011-1.12-3.49-2.16c-0.69-1.47-1.32-0.43-1.979-0.46
		c-0.521-0.04-1.051-0.08-1.58-0.109c-0.59-0.07-27.07,4.659-27.65,4.83c-52.1,63.439,27.25,70.649,17.73,84.5
		c-3.521,5.09-38.801,2.77-38.801,2.77c-27.25-13.31-7.41-24.02-27.149-27.46c-2.48-0.42-0.82-10.11-4.67-15.81
		c-7.681,6.71,5.68-37.851,25.729-58.21c-0.71-1.811,1.98-3.49,0.891-5.061c-1.2-1.77,5.09-0.99,3.5-2.47
		c-1.33-1.2-0.771-1.95-0.82-2.271c-0.09-0.43-6.561-2.71-6.82-3.64c-0.76-2.979-2.6-4.94-4.75-6.85
		c-0.64-0.54-1.03-1.341-1.53-2.03c-1.77-2.47-3.529-4.97-5.279-7.45c-0.641-0.9-1.221-1.85-1.921-2.74c-1.5-2-3.02-4.04-4.579-6.02
		c-0.04-0.03-0.74,0.229-0.88,0.5c-0.48,0.85-0.221,2.49-2.16,1.689c-0.181-0.08-1,1.28-1.51,2.04c-0.221,0.37-0.311,0.82-0.5,1.221
		c-0.221-0.351-0.44-0.7-0.711-1.021c-0.439-0.52-0.92-1.04-1.359-1.56c-0.54,0.75-1.09,1.55-1.59,2.3
		c-0.141,0.229-0.25,0.54-0.37,0.8c-1.08-0.59-1.11-0.59-1.431,0.94c-0.3,1.479-0.739,2.149-2.38,1.05
		c-2.13-1.4-4.46-0.32-5.28,2.149c-0.27,0.87-0.64,1.75-1.05,2.57c-0.22,0.37-0.67,0.64-1,0.94c-0.02-0.4-0.01-0.801-0.069-1.21
		c-0.011-0.221-0.07-0.49-0.141-0.73c-0.21,0.2-0.609,0.37-0.689,0.62c-0.67,2.85-3.851,1.91-5.391,3.5
		c-0.08,0.07-0.67-0.45-1.069-0.521c-0.421-0.06-0.91,0.011-1.341,0.141c-0.05,0-0.05,0.54,0.03,0.79
		c0.15,0.569,0.59,1.35,0.38,1.58c-0.64,0.729-1.49,1.31-2.31,1.859c-0.34,0.221-0.99,0.17-1.22,0.431
		c-0.961,1.35-1.61,3.649-2.82,3.92c-2.11,0.5-1.74,2.52-3.141,3.37c-1.709,0.989-3.01,2.689-4.43,4.109
		c-5.05,4.91-9.939,9.96-15.17,14.7c-1.96,1.82-25.56,16.771-25.729,16.88c-2.36,1.3-5.53,2.13-6.87,4.15
		c-11.11,4.3-30.75,6.939-35.49,7.52c-47.26,5.92-68.54-19.38-69.71-20.84c-22.95-28.82,33.29,13.54,54.03,10.11
		c79.92-14.061,107.21-78.92,118.71-94.78c0.1-0.16,11.86-14.41,11.63-15.54c-0.24-0.979-1.83-1.97-1.66-2.65
		c0.45-1.75,1.54-3.319,2.46-4.909c0.19-0.36,0.761-0.511,1.181-0.761c-0.271-0.37-0.551-0.729-0.801-1.109
		c-0.09-0.15-0.21-0.431-0.149-0.54c0.93-1.8,1.92-3.54,2.8-5.36c0.22-0.46-0.04-1.14,0.14-1.63c0.511-1.39,1.2-2.729,1.74-4.11
		c0.96-2.5,1.86-5.02,2.71-7.529c0.07-0.3-0.82-0.841-0.77-1.15l85.159-146.74l40.48-52.16c3.61-9.399,4.27-9.42,7.68-16.59
		c1.851-3.939,3.45-8,5.38-11.899c0.811-1.681,2.2-3.09,3.33-4.641c1.351,1.09,1.931-0.229,2.25-0.979
		c0.4-0.95,0.561-2.15,0.34-3.15c-0.31-1.27,1.67-6.93,2.891-7.42c0.12-0.05,0.319-0.02,0.449,0.05
		c1.65,0.681,2.721-0.01,3.15-1.949c1.061-4.591-1.979-8.04-3.34-11.91c-0.78-2.29-3.22-4.69-2.77-6.521
		c0.92-3.74-2.711-4.1-3.641-6.34c-1.15-2.61-3.59-4.64-5.1-7.1c-0.62-0.971-0.311-2.48-0.471-3.73c-0.05-0.28-0.42-0.53-0.67-0.78
		c-0.89,2.32-0.51-0.13-0.569-0.189c-0.72-1.26-0.69-1.09,0.45-1.41c0.689-0.19,1.239-0.99,1.85-1.51
		c-0.76-0.561-1.57-1.11-2.35-1.681c-0.45-0.3-1.2-0.55-1.311-0.96c-1.13-4.159-2.3-8.33-3.13-12.55
		c-0.23-1.189,0.569-2.6,0.92-3.88c0.05-0.189,0.18-0.34,0.15-0.49c-0.12-1.3-0.29-2.61-0.471-3.89c-1.05-7.09-0.6-14.1,1.07-21.03
		c0.46-1.92,0.33-3.95,0.76-5.88c0.23-1.1,0.92-2.1,1.42-3.16c0.15-0.28,0.32-0.54,0.46-0.83c-0.26,0.06-0.63,0.27-0.79,0.18
		c-0.439-0.4-1.13-0.83-1.199-1.33c-0.29-1.73-0.7-3.52-0.44-5.24c0.48-3.14,1.46-6.18,2.05-9.31c0.25-1.11,0.221-2.34,0.021-3.46
		c-0.33-1.81-1.38-3.59-1.311-5.34c0.16-3.07-2.399-3.93-3.949-5.5c-1.96-2-3.721-3.77-2.45-6.88c0.3-0.7,0.16-1.87-0.311-2.48
		c-3.949-5.5-3.31-11.1-0.43-16.73c2.14-4.23,5.99-5.18,9.95-2.68c1.8,1.15,3.68,2.2,5.649,3.04c1.971,0.85,3.78,0.5,5.61-1
		c2.16-1.73,4.65-3.16,7.14-4.44c2.421-1.21,5.08-0.8,6.641,1.271c0.819,1.08,0.53,3.21,0.26,4.79c-0.38,2.65-0.9,5.31,2.08,6.69
		c1.26,0.59,2.89,0.3,4.28,0.57c2.729,0.55,5.39,1.5,8.109,1.76c1.62,0.15,3.301-0.74,4.95-1.17c0.04,0,0.1-0.15,0.1-0.15
		c2.46,1.12,4.011-2.57,6.811-1.2c1.12,0.55,3.069-0.75,4.63-0.94c5.14-0.58,9.8,1.41,14.6,2.69c1.92,0.52,3.94,0.85,5.83,1.51
		c1.23,0.41,2.4,1.14,3.44,1.9c1.85,1.28,3.58,2.71,5.39,4.03c0.91,0.64,1.83,1.44,2.85,1.71c6.301,1.54,12.65,1.1,19.03,0.4
		c1.78-0.2,3.61,0.08,5.36-0.12c1.229-0.16,2.39-0.93,3.66-1.14c4.55-0.9,9.14-1.65,13.729-2.44c2.63-0.44,4.851-0.3,6.101,2.65
		c1.27,2.9,4.069,2.78,6.729,2.66h0.03c1.05,0.69,2.28,1.18,3.09,2.1c1.01,1.09,1.09,7.1,1.08,7.31c-0.07,1.89,0.26,3.96-0.46,5.57
		c-0.78,1.82-2.05,2.07-3.96,0.14c-0.05-0.05-0.09-0.09-0.141-0.13c0.041,0.23,0.061,0.47,0.07,0.7
		c0.391,7.38-8.67,13.88-20.24,14.51c-0.59,0.03-1.17,0.05-1.75,0.05c1.101,2.17,3.28,3.84,4.971,5.71
		c0.38,0.44,1.199,0.77,1.22,1.21c0.14,2.91,2.14,1.38,3.45,1.51c0.76,0.07,1.46,0.17,2.16,0.25c-0.261,0.65-0.36,1.46-0.851,1.94
		c-3.02,3.18-6.11,6.36-9.25,9.42c-0.569,0.57-1.56,0.73-2.36,1.05c-0.289,0.09-0.81,0.19-0.829,0.32
		c-0.08,2.83-8.13,3.12-8.53,3.11c-1.29,0.01-2.43-0.25-2.021,1.83c0.23,1.16-0.489,2.47-0.56,3.71c-0.01,0.79,0.3,1.62,0.64,2.34
		c0.66,1.53,1.48,3.02,2.25,4.5c0.2,0.32,0.53,0.72,0.891,0.77c1.819,0.24,3.67,0.21,5.439,0.65c1.11,0.28,2.01,1.43,3.14,1.8
		c1.511,0.53,3.221,0.53,4.771,0.971c4.28,1.21,8.47,2.64,12.771,3.8c1.479,0.399,3.109,0.14,4.68,0.32
		c3.28,0.399,6.55,1.21,9.859,1.279c3.65,0.061,7.381-0.27,10.961-0.89c3.829-0.64,7.55-1.88,11.359-2.8
		c1.5-0.36,3.32-0.051,4.54-0.78c4.15-2.49,8.14-5.33,12.15-8.03c9.25-6.2,16.79-14.35,24.87-21.85c2.899-2.67,5.5-5.62,8.239-8.47
		c0.32-0.32,0.671-0.68,0.74-1.09c0.49-2.35,2.51-2.9,4.29-3.73c0.21-0.07,0.35-0.3,0.48-0.46c-1.73-1.53,0.06-1,0.71-1.26
		c0.51-0.2,1.319-0.63,1.3-0.96c0.109-3.19,1.96-5.02,4.6-6.33c0.32-0.15,0.41-0.8,0.53-1.23c0.11-0.5-0.04-1.33,0.25-1.51
		c1.7-1.01,1.32-2.94,2.15-4.33c0.399-0.75,1.609-1.11,2.43-1.66c0.7-0.47,1.42-0.91,1.97-1.51c0.13-0.1-0.47-0.87-0.77-1.36
		c-0.07-0.15-0.19-0.44-0.15-0.46c0.561-0.32,1.29-0.48,1.69-0.94c1.02-1.11,1.899-2.34,2.79-3.54c0.05-0.03-0.04-0.19-0.08-0.29
		c2.399-0.771,2.13-5.1,5.77-4.29c0.29,0.06,0.96-0.43,1.051-0.75c0.51-2.1,1.6-2.61,3.75-1.92c1.01,0.33,2.34-0.32,3.55-0.53
		c0.08-0.01,0.14-0.21,0.229-0.32c-2.26-0.71,0.42-0.59,0.19-1.06c-0.32-0.71-0.45-1.48-0.65-2.22c-0.28-0.86-0.83-1.77-0.7-2.6
		c0.051-0.4,1.34-0.67,2.08-0.96c0.19-0.1,0.551-0.08,0.641-0.23c1.279-1.88,2.55-3.78,3.81-5.66c0.94-1.34,1.84-2.67,2.74-4
		c1.41-2.05,3.069-3.99,4.16-6.22c1.29-2.69,2.14-5.63,3.109-8.49c0.13-0.49-0.579-1.33-0.38-1.76c1.4-2.9,3.07-5.68,4.33-8.62
		c0.55-1.23-0.03-2.88,0.44-4.11c1.279-3.57,2.77-7.07,4.29-10.53c1.41-3.25,3.33-6.32,4.319-9.69c1-3.34,1.811-6.32,5.55-7.88
		c2.011-0.83,3.49-2.83,5.211-4.33c0.149-0.13,0.459-0.31,0.459-0.31c0.2,0.2,0.311,0.52,0.53,0.67c1.38,1.07,2.771,2.19,4.32,2.96
		c0.25,0.16,1.28-1.42,2.069-2.06c1.771-1.32,3.471-3.08,5.471-3.57c0.819-0.21,3.06-2.35,4.13,0.33c0.01,0.03,0.52-0.08,0.8-0.14
		c1.53-0.31,1.79,0.2,2.021,1.66c0.319,1.96,1.04,3.87,1.689,5.81c0.271,0.93,0.82,1.78,1.04,2.71c0.29,1.25,1.021,2.95-1.64,2.34
		c-0.24-0.05-1.04,0.78-0.96,1.04c0.33,1.35,0.649,2.8,1.38,3.98c0.45,0.76,1.52,1.31,2.39,1.67c0.84,0.37,1.92,0.25,2.801,0.57
		c0.3,0.13,0.55,1.16,0.35,1.47c-0.42,0.68-1.12,1.62-1.75,1.65C1445.87,174.39,1443.96,175.13,1444.4,176.98z"/>
</g>
<g id="Layer_2">
	<g>
		<g>
			<path d="M1044.09,190.66c-8.82-4.01-21.64-4.01-30.46-8.82c-18.43-17.62-4.8-52.09,8.82-57.69
				c124.229-48.09,266.09-17.63,355.04,84.15c17.63,151.47-160.29,200.36-270.891,240.44c-4.81,44.08,17.641,84.149,8.82,124.21
				c-8.82,26.45-40.07,48.899-75.34,40.08c-8.82-4.811-13.63-13.63-17.63-18.44c-13.62-106.59-8.82-208.37,0-310.15
				C1024.86,253.17,1026.46,217.92,1044.09,190.66z M1115.43,354.95c62.521,21.64,155.48-40.07,173.11-110.6
				c-52.89-40.07-115.41-84.16-181.93-66.52c-4.811,0,17.64,12.82,17.64,26.45c0,22.45-13.63,40.07-13.63,61.71
				C1110.61,298.05,1088.97,346.15,1115.43,354.95z"/>
			<path d="M1519.39,115.33c7.221-11.22,45.69-21.64,53.7-4.01c42.47,90.56,57.7,188.33,83.35,289.32
				c0,10.42,17.631,10.42,24.841,21.641c4.01,7.22,4.01,17.64,0,21.64c-24.841,53.7,25.649,97.771,18.439,148.271
				c-3.21,21.63-45.689,31.25-61.71,10.42c-27.26-36.87-7.22-96.17-46.49-119.431c-29.649-16.83-76.13-11.21-104.989,11.221
				c-36.86,28.05-11.21,151.47-93.771,112.21c-11.21-50.5,17.63-97.79,28.86-148.271c14.42-64.92,32.06-133.84,53.7-198.76
				C1492.939,208.29,1490.54,154.59,1519.39,115.33z M1504.16,418.28c19.229,10.42,68.93,14.42,76.13-10.42
				c14.44-50.5-14.42-100.99-36.06-148.271c-17.62,21.64-21.631,47.29-24.841,72.13C1514.58,364.58,1483.33,407.05,1504.16,418.28z"
				/>
			<path d="M1722.189,240.35c8.82-29.65,56.101-55.3,75.341-25.65c30.449,45.69-4.011,100.99,8.819,155.479
				c8.811,37.681,8.01,75.34,33.66,104.99c41.67-46.479,45.68-113.8,83.35-159.479c58.5-71.331,113.811,24.84,134.641,88.159
				c0,8.011,12.02,28.851,16.83,24.841c58.5-71.33,4.01-163.49,24.84-247.65c8.01-16.04,42.47-33.67,58.51-20.85
				c46.48,37.68,25.65,101,25.65,155.49c0,54.49-12.82,109-33.66,163.49c-8.82,16.83-17.63,36.87-33.67,49.69
				c-46.48,37.68-84.141-4.011-104.98-45.69c-16.84-33.66-28.859-58.5-50.5-88.15c-45.689,63.311-66.52,197.16-171.51,172.311
				C1722.189,475.17,1701.36,353.35,1722.189,240.35z"/>
			<path d="M2199.09,216.3c69.721-87.36,187.54-88.15,288.521-113.8c21.64-5.62,44.88,8.82,52.1,26.44
				c9.61,21.64-16.83,39.28-34.46,43.28c-61.71,22.43-126.63,13.62-183.529,44.08c-8.82,4.81-17.631,12.82-13.631,21.64
				c65.711,100.99,245.24,136.26,209.98,266.88c-30.46,113.81-197.16,133.04-297.34,87.37c-44.88-20.04-17.63-78.551,21.64-96.19
				c22.44-4.01,22.44,26.45,39.26,31.26c17.63,4.01,35.271,0,52.9,8.82c35.26,16.83,65.72-4.811,96.17-17.63
				c17.62-13.63,17.62-35.271,8.819-52.891c-61.709-78.54-153.08-109-214.789-188.339C2206.311,253.17,2181.46,237.94,2199.09,216.3
				z"/>
		</g>
		<g>
			<path d="M1075.28,717.01c0-3.5,3.5-10.5,7.01-10.5c35.4-12.46,76.64-9.33,110.09,8.96c12.83,6.61,0,17.5-8.55,22.95
				c-23.34,10.891-42.8-14.01-66.141-10.51c-5.05,33.85,7.391,67.3,14.4,99.59c19.44,1.55,63.79-13.23,62.63,13.62
				c-0.78,19.45-45.13,5.45-52.13,19.85c-8.939,19.44,10.891,42.79,16.35,64.19c7,19.45-19.84,28.399-30.35,19.45
				c-21.39-21.4-12.439-56.811-31.9-79.761c-1.949-3.88-10.89,1.57-17.899,0c-7-1.949-14.39-8.939-8.94-16.33
				c5.44-7,19.45-10.5,21.4-17.51c3.5-14.399-3.5-28.399-7-42.79C1078,763.7,1073.72,740.35,1075.28,717.01z"/>
			<path d="M1338.24,790.93c30.34,39.301,17.12,95.7-21.4,121.38c-25.29,17.12-55.24,19.061-78.59,1.95
				c-23.34-17.12-38.13-46.689-29.95-76.64C1223.48,785.49,1292.34,731.41,1338.24,790.93z M1287.27,893.25
				c24.9-11.67,34.23-40.85,27.631-68.09c-3.891-15.17-25.681-19.85-38.521-17.12c-12.84,2.34-29.95,41.24-27.63,53.3
				C1253.04,880.41,1265.49,902.98,1287.27,893.25z"/>
			<path d="M1373.23,739.19c-1.95-9.33-7.391-22.561,1.949-28.011c46.69-28.02,106.601-3.5,134.61,41.23
				c16.72,26.06-14.78,50.58-37.34,65.359c7.39,39.301,19.06,80.53,37.34,115.94c5.84,11.28-18.67,19.06-28.01,11.28
				c-33.851-28.021-23.74-78.98-52.13-110.48c-5.44-5.85-24.511-5.46-28.4,1.931c-9.34,29.96,8.17,61.859,9.33,91.81
				c0.39,7.39-14.78,13.23-26.061,11.28c-5.46-1.95-9.35-7.391-11.29-11.28c-12.83-33.84-9.34-71.18-9.34-106.59
				C1363.89,793.65,1382.57,763.7,1373.23,739.19z M1407.08,799.1c22.56,5.44,48.62-1.949,65.359-16.739
				c3.891-1.931,11.28-7.78,7.391-13.21c-10.9-22.57-35.41-31.521-56.03-33.851c-14.78-1.55-11.28,24.51-14.78,35.79
				C1405.91,780.04,1397.74,796.77,1407.08,799.1z"/>
			<path d="M1654.84,705.73c3.5-5.431,22.18-10.5,26.07-1.931c20.62,43.95,28.01,91.42,40.46,140.431
				c0,5.069,8.55,5.069,12.05,10.51c1.95,3.5,1.95,8.55,0,10.5c-12.05,26.069,12.46,47.46,8.96,71.979
				c-1.56,10.5-22.18,15.17-29.96,5.05c-13.23-17.899-3.5-46.689-22.561-57.97c-14.399-8.16-36.959-5.439-50.959,5.45
				c-17.9,13.62-5.461,73.53-45.53,54.47c-5.44-24.51,8.56-47.46,14.01-71.97c7-31.52,15.56-64.97,26.06-96.49
				C1642.01,750.86,1640.85,724.79,1654.84,705.73z M1647.45,852.79c9.33,5.05,33.46,7,36.96-5.07c7-24.51-7.01-49.01-17.51-71.97
				c-8.561,10.5-10.511,22.95-12.061,35.02C1652.51,826.73,1637.33,847.35,1647.45,852.79z"/>
			<path d="M1838.43,731.03c-3.51-3.12-11.67,0-15.17-5.07c-8.17-13.229,6.61-26.45,13.23-26.45c23.33,0,49.8-3.109,69.63,8.17
				c18.29,10.5,41.64,10.11,54.86,28.391c1.55,3.12,3.109,8.17,1.55,11.67c-16.351,13.24-29.96,28.02-49.8,39.689
				c-1.551,0-9.73,5.051-4.671,6.61c26.45,5.06,52.921,18.29,59.521,41.24c7.01,24.899-8.939,45.52-26.45,63.02
				c-24.12,24.12-51.35,48.24-84.42,49.8c-6.61,0.391-18.28-5.05-13.62-14.779c3.5-6.62,13.62-13.23,13.62-16.74
				c3.11-29.95-3.5-59.51-8.55-89.47c-1.57-9.73-11.67-21.4-3.12-33.07c3.12-3.5,1.55-13.21,0-19.83
				C1841.15,759.41,1851.66,739.19,1838.43,731.03z M1879.66,769.15c16.72,1.54,31.52-10.131,35.02-21.41
				c3.11-6.61-13.229-8.93-21.79-13.21c-9.729-5.46-13.229,6.609-14.779,14.78C1876.939,755.92,1881.22,762.53,1879.66,769.15z
				 M1894.83,901.81c17.9-15.17,42.8-29.949,37.729-54.85c-3.109-16.33-36.18-33.07-47.85-19.84c-5.05,8.17,1.57,23.34,3.12,36.57
				C1889.78,876.91,1889.78,890.13,1894.83,901.81z"/>
			<path d="M1983.9,745.81c21.789-31.909,73.529-35.8,105.819-10.51c7,5.45,0,17.9-12.439,19.851
				c-16.341,1.949-32.681-10.9-48.63-3.891c-19.84,8.94-3.5,37.73-10.891,55.63c23.33,12.83,57.58-10.51,70.021,19.841
				c-14.39,25.279-49.8,5.829-64.58,21.779c-12.06,12.83-5.44,39.29-3.5,60.69c28.79,5.45,53.69-14,80.91-21.4
				c1.56-1.95,5.06,1.95,7.01,3.51c3.5,12.83-1.95,23.33-12.46,27.221c-28.79,10.12-54.08,24.899-84.42,23.34
				c-8.939-1.95-21.78,1.55-23.34-7.39c-8.94-28.79,1.949-57.58-5.44-85.98c-1.55-5.84-10.89-12.85-5.439-19.84
				c0-1.93,3.5-3.5,5.439-5.44c3.5-7.39,1.95-16.33,1.95-23.33C1983.9,781.98,1973.4,760.59,1983.9,745.81z"/>
			<path d="M2123.54,745.81c21.79-31.909,73.53-35.8,105.82-10.51c7,5.45,0,17.9-12.44,19.851c-16.35,1.949-32.68-10.9-48.63-3.891
				c-19.85,8.94-3.5,37.73-10.89,55.63c23.33,12.83,57.58-10.51,70.02,19.841c-14.39,25.279-49.8,5.829-64.58,21.779
				c-12.06,12.83-5.449,39.29-3.5,60.69c28.791,5.45,53.69-14,80.91-21.4c1.561-1.95,5.061,1.95,7.01,3.51
				c3.5,12.83-1.949,23.33-12.459,27.221c-28.791,10.12-54.08,24.899-84.42,23.34c-8.94-1.95-21.78,1.55-23.341-7.39
				c-8.95-28.79,1.95-57.58-5.45-85.98c-1.55-5.84-10.89-12.85-5.449-19.84c0-1.93,3.5-3.5,5.449-5.44
				c3.5-7.39,1.95-16.33,1.95-23.33C2123.54,781.98,2113.04,760.59,2123.54,745.81z"/>
			<path d="M2266.67,739.19c-1.95-9.33-7.39-22.561,1.95-28.011c46.689-28.02,106.6-3.5,134.61,41.23
				c16.729,26.06-14.78,50.58-37.341,65.359c7.39,39.301,19.061,80.53,37.341,115.94c5.84,11.28-18.67,19.06-28.011,11.28
				c-33.85-28.021-23.729-78.98-52.13-110.48c-5.449-5.85-24.51-5.46-28.399,1.931c-9.33,29.96,8.17,61.859,9.34,91.81
				c0.39,7.39-14.78,13.23-26.06,11.28c-5.461-1.95-9.351-7.391-11.291-11.28c-12.83-33.84-9.33-71.18-9.33-106.59
				C2257.34,793.65,2276.02,763.7,2266.67,739.19z M2300.53,799.1c22.56,5.44,48.62-1.949,65.36-16.739
				c3.89-1.931,11.279-7.78,7.39-13.21c-10.9-22.57-35.41-31.521-56.021-33.851c-14.779-1.55-11.279,24.51-14.779,35.79
				C2299.35,780.04,2291.189,796.77,2300.53,799.1z"/>
		</g>
		<path d="M957.019,23.836c0-1.719-1.571-2.75-3.144-3.698c-1.575-0.946-3.147-1.808-3.147-3.183c0-1.377-0.176-3.098-0.699-4.644
			c-0.526-1.549-1.396-2.925-2.797-3.614c-1.398-0.69-3.323-1.549-5.245-2.753c-1.925-1.206-3.846-2.755-5.245-4.816
			c-1.399-2.065-4.373-0.864-6.994,0.86c-2.624,1.719-4.896,3.956-4.896,3.956s-0.526-0.517-1.66-1.206
			c-1.137-0.685-2.886-1.549-5.333-2.235c-2.447-0.689-6.993,1.721-11.363,4.559c-4.373,2.839-8.568,6.106-10.316,7.14
			c-1.748,1.034-2.621,4.128-3.232,7.399c-0.614,3.269-0.964,6.709-1.663,8.429c-0.699,1.721-3.497,5.16-6.555,8.516
			c-3.059,3.353-6.379,6.623-8.127,8.002c-1.749,1.375-2.975,4.47-4.285,8.944c-1.311,4.476-2.709,10.325-4.808,17.204
			c-2.098,6.885-5.944,13.421-10.316,18.928c-4.369,5.503-9.264,9.977-13.46,12.729c-4.196,2.755-10.84,9.98-19.232,19.699
			s-18.529,21.934-29.718,34.666c-11.189,12.732-23.777,24.088-35.229,33.118c-11.451,9.032-21.764,15.745-28.408,19.183
			c-6.644,3.444-16.084,4.816-25.96,5.163c-9.879,0.346-20.196-0.347-28.584-1.032c-8.392-0.687-14.513-3.099-19.493-5.595
			c-4.984-2.49-8.83-5.072-12.677-6.105s-5.768-1.376-7.167-1.464c-1.398-0.084-2.274,0.088-4.023,0.088
			c-1.748,0-2.271-0.859-2.709-1.976c-0.438-1.118-0.788-2.495-2.186-3.53c-1.399-1.033-1.223-3.958-0.699-6.621
			c0.526-2.667,1.398-5.079,1.398-5.079c3.497,0.346,6.294,0,8.918-0.945c2.621-0.944,5.069-2.493,7.866-4.559
			c2.797-2.064,5.417-4.303,8.565-6.882c0.607-0.497,1.239-1.006,1.886-1.536c0.079-0.059,0.154-0.121,0.232-0.183
			c0.676-0.542,1.379-1.098,2.114-1.673l0.068-0.056c1.537-1.199,3.212-2.474,5.076-3.827c0.751-0.542,1.523-1.098,2.339-1.672
			c3.915-2.751,8.043-7.042,11.647-11.382c0.16-0.193,0.317-0.386,0.478-0.575c0.732-0.893,1.448-1.787,2.124-2.663
			c4.108-5.333,7.079-10.15,7.428-11.53c0.35-1.375,0.876-4.989,1.399-9.287c0.526-4.3,1.049-9.291,1.398-13.421
			c0.35-4.127,0.176-7.226-0.435-9.634c-0.614-2.408-1.664-4.127-3.062-5.506s-3.67-1.549-6.029-1.379
			c-2.362,0.176-4.811,0.693-6.555,0.693c-1.749,0-8.219,0.859-16.435,1.889c-8.219,1.033-18.183,2.239-26.921,2.925
			c-8.744,0.689-13.463,0.173-17.048-0.686c-3.585-0.863-6.033-2.063-10.226-2.755c-4.196-0.686-6.121-2.751-7.431-4.813
			c-1.311-2.069-2.01-4.127-3.758-4.82c-1.749-0.687-5.945-1.888-11.102-3.183c-5.16-1.287-11.277-2.666-16.872-3.696
			c-5.595-1.036-11.013-0.35-15.471,0.687c-4.461,1.036-7.958,2.408-9.703,2.754c-1.751,0.343-4.595,0.621-7.526,0.647
			c-2.928,0.02-5.951-0.216-8.049-0.906c-2.098-0.686-3.611-3.032-4.52-6.062c-0.905-3.032-1.209-6.755-0.886-10.199
			c0.173-1.863,0.745-3.516,0.788-4.751c0.046-1.232-0.435-2.049-2.362-2.245c-3.634-0.36-6.579,0.974-9.007,2.803
			s-4.339,4.164-5.912,5.797c-1.575,1.634-2.958,4.385-4.428,6.072c-1.47,1.686-3.029,2.303-4.954-0.334
			c-1.738-2.386-4.712-5.83-7.859-8.745c-3.146-2.915-6.477-5.307-8.925-5.594c-2.447-0.285-4.719-0.259-6.644,1.649
			c-1.921,1.906-3.497,5.69-4.543,12.918c-1.052,7.229-0.352,12.555,1.223,16.862c1.575,4.301,4.02,7.569,6.467,10.664
			c2.448,3.098,3.847,5.333,4.634,7.741c0.788,2.412,0.961,4.99,0.961,8.778c0,3.784-0.174,8.771-1.134,15.565
			c-0.964,6.8-2.712,15.402-5.856,26.415c-3.15,11.006-3.497,20.813-2.797,30.45c0.699,9.634,2.444,19.095,3.497,29.418
			c1.045,10.323,3.843,19.098,6.47,26.32c2.618,7.229,5.065,12.905,5.415,17.036c0.35,4.127,0,8.944-1.137,14.107
			c-1.134,5.161-3.059,10.667-5.856,16.172c-2.797,5.507-8.216,15.827-13.46,25.46c-5.245,9.635-10.314,18.582-12.412,21.333
			c-2.098,2.752-5.418,7.399-8.83,12.474c-3.409,5.075-6.908,10.582-9.353,15.055c-2.451,4.47-5.947,9.288-10.667,14.794
			c-4.718,5.506-10.664,11.699-18.006,18.924c-15.05,14.811-32.006,34.94-48.789,56.013c-16.777,21.07-33.38,43.084-47.711,61.667
			c-14.34,18.579-27.802,45.763-39.163,71.482c-5.783,13.091-9.33,26.268-12.204,37.732l-0.746,4.403
			c-2.155,5.461-8.527,10.106-14.114,10.522c-8.33,0.621-44.976,6.406-61.805,6.82c-1.067,0.028-2.118,0.042-3.152,0.042
			c-2.402,0-4.723-0.075-6.884-0.217l-0.528-0.032c-11.447-0.743-25.697-1.664-46.395-10.783
			c-8.232-3.622-24.769-12.125-43.041-28.326c-15.119-13.407-20.814-21.226-31.154-35.417c0,0-2.476-3.399-3.708-5.079
			c-21.008-28.66-39.062-50.39-42.121-51.97c-1.13-0.55-1.87-0.72-2.312-0.768c-0.038,0.191-0.061,0.464-0.038,0.791
			c0.371,2.323,9.962,29.504,16.02,41.947c6.665,13.699,17.987,34.051,29.765,50.087c5.771,7.853,28.534,33.381,45.624,44.361
			c10.488,6.733,39.032,22.7,77.512,25.486c3.949,0.289,8.165,0.433,12.536,0.433c1.679,0,3.386-0.021,5.112-0.063
			c14.095-0.347,46.012-1.302,61.01-2.652l-0.361,2.116c1.392,4.412,3.356,12.198,6.593,17.478c0.428,3.872,1.881,4.163,2.152,9.934
			c0.323,6.936,4.659,18.124,4.659,18.124c1.048-2.869,3.592-2.748,5.479,3.21c2.797,8.834,2.916,9.176,7.342,11.928
			c-0.308-1.539-1.07-4.805,2.771-0.996c0.74,1.127,1.453,1.942,2.037,2.46c6.208,6.879,12.067,10.954,17.674,13.11
			c0.284,0.491,0.558,0.987,0.805,1.491c3.273,9.861,5.643,20.578,5.79,25.371c0.208,6.801-4.992,17.634-3.781,22.644
			c1.215,5.007,3.155,11.208,0.73,19.277c-2.427,8.073-10.298,29.595-12.727,33.144c-2.427,3.55-12.026,12.104-8.663,21.075
			c3.359,8.966,7.863,19.166,14.726,26.567c10.671,11.51,15.835,19.128,20.829,33.144c4.988,14.009,6.595,19.421,8.743,20.431
			c5.173,2.43,8.478-0.138,19.88,5.504c4.863,2.405,19.825,1.026,21.176,0.018c1.353-1.011,2.554-2.079,5.578-3.242
			c10.263-3.944,7.248-4.231,7.653-7.608c0.355-2.983,1.128-6.431-3.784-9.616c0,0-3.16-3.887-6.081-3.639
			c-3.124,0.266-4.44-2.271-10.976-4.07c-6.708-1.851-9.403-7.638-14.011-12.198c-4.611-4.559-12.926-14.348-15.493-18.345
			c-2.563-4-4.953-9.866-6.168-14.873c-1.211-5.005,0.66-7.102,0.522-10.128c-0.137-3.024,2.012-12.627,2.497-17.858
			s7.559-27.202,9.57-30.791c2.008-3.584,10.712-25.031,13.171-28.956c2.459-3.922,8.008-18.49,13.207-24.807
			c2.443-2.971,4.588-5.785,6.182-7.947c7.488,1.419,14.275,3.33,18.98,6.167c14.451,8.718,42.895,22.939,47.555,31.655
			c4.66,8.716,6.993,22.48,8.856,29.818c1.866,7.344,2.334,17.896,2.334,23.859c0,5.965-7.458,32.572-8.393,42.207
			c-0.935,9.637-7.458,22.482-7.921,30.281c-0.471,7.8,9.784,16.516,16.777,23.397c6.997,6.883,41.029,22.878,45.689,24.774
			c27.039,11.01,44.322,23.554,45.689,23.854c23.414,5.186,33.019,10.052,39.976,11.632c1.945,1.329,4.448,2.571,6.896,3.165
			c4.281,1.044,18.974,0.449,20.816,0.083c1.847-0.366,4.729-0.974,6.164-1.719c1.438-0.75,12.222-5.02,13.549-7.343
			c1.327-2.325,3.245-7.479,2.859-11.137c-0.386-3.659-3.742-11.559-8.045-13.921c-4.307-2.365-9.621-2.718-11.164-3.55
			c-1.428-0.77-2.493-4.017-6.549-5.171c-5.356-4.702-13.552-3.281-16.483-3.693c-3.265-0.46-7.925-0.46-12.588,0.915
			c-4.664,1.378-13.288,2.757-20.98,2.294c-2.791-0.165-36.362-17.433-43.355-22.937c-6.993-5.506-13.987-8.718-17.716-20.187
			c-3.729-11.47,0.468-43.583,0.468-55.055c0-11.471,9.787-28.904,13.52-40.832c3.729-11.927,6.993-31.196,8.392-44.502
			c1.398-13.305,4.66-24.775,5.591-34.866c0.935-10.09-6.99-33.032-9.323-39.914c-2.331-6.882-14.451-22.02-21.912-33.949
			c-7.458-11.925-26.108-42.666-29.369-48.175c-1.268-2.14-4.51-9.332-8.212-17.763c2.448-5.21,5.869-10.079,9.611-14.581
			c6.294-7.569,19.578-17.837,32.604-27.064c13.022-9.236,25.79-17.432,31.032-20.877c5.245-3.44,23.951-10.208,45.192-21.964
			c21.242-11.755,45.016-28.505,60.401-51.9c10.183-15.483,23.121-41.349,33.774-64.287c10.653-22.938,19.023-42.953,20.071-46.741
			c1.049-3.784,1.709-12.823,2.125-21.731c0.415-8.905,0.591-17.679,0.673-20.934c0.085-3.249,1.66-7.207,3.562-10.869
			c1.901-3.653,4.13-7.02,5.529-9.085c1.399-2.065,11.19-7.572,21.33-12.901c10.14-5.34,20.63-10.497,23.428-11.873
			c2.797-1.375,3.943-1.248,4.803-1.003c0.856,0.242,1.422,0.601,3.062-0.313c2.099-1.177,8.173-4.634,14.16-8.137
			c5.991-3.506,11.889-7.065,13.638-8.438c1.748-1.379,26.924-35.097,52.097-68.992c25.176-33.895,50.353-67.953,52.101-70.018
			c1.748-2.066,3.497-2.413,5.245-2.324c1.749,0.088,3.493,0.602,5.242,0.258c1.748-0.347,2.974-1.032,4.11-2.065
			c1.134-1.032,2.184-2.411,3.583-4.13c1.398-1.719,0.875-3.268-0.173-4.814c-1.049-1.552-2.625-3.101-3.324-4.82
			s-1.222-3.268-1.222-4.902c0-1.634,0.522-3.356,1.921-5.421c1.399-2.062,3.324-4.297,5.245-6.709
			c1.925-2.408,3.846-4.99,5.245-7.738c1.403-2.756,5.771-8.605,10.579-14.454c4.807-5.85,10.052-11.699,13.199-14.454
			c3.147-2.75,8.915-6.534,14.51-10.32c5.595-3.785,11.016-7.568,13.46-10.324c2.447-2.75,3.147-5.849,3.235-8.686
			C957.546,28.14,957.019,25.557,957.019,23.836 M586.597,107.202c-3.062-0.556-6.284-1.824-7.326-5.549
			c-0.14-0.5-0.052-0.942,0.277-1.359c0.883-1.121,3.351-1.902,6.007-1.902c0.343,0,0.657,0.032,0.978,0.062
			c0.829,0.474,1.509,1.17,1.967,1.997c-0.484-0.359-1.082-0.572-1.732-0.572c-0.771,0-1.47,0.298-1.99,0.78l2.336,2l-3.235-0.154
			c-0.01,0.082-0.026,0.157-0.026,0.239c0,1.587,1.304,2.869,2.915,2.869c0.738,0,1.396-0.274,1.909-0.716
			C588.241,105.859,587.513,106.66,586.597,107.202"/>
		<path d="M955.878,329.431c0.416-4.108-4.182-7.323-8.218-9.101c-4.039-1.775-8.281-1.497-13.291-0.602
			c-5.01,0.892-21.98,8.921-24.902,10.02c-2.921,1.095-9.673-1.64-13.918-1.359c-4.245,0.274-26.99,9.813-39.234,12.768
			c-12.245,2.958-24.908,3.108-29.085,2.696c-4.172-0.405-18.989,7.138-27.058,10.504c-8.068,3.359-55.578,21.548-61.489,24.427
			c-5.912,2.878-19.271,2.961-21.291,2.075c-2.02-0.889-17.708-40.457-17.708-40.457s-1.771,10.604-0.752,14.451
			c1.017,3.847-1.108,4.029-0.824,6.417c0.288,2.393,5.546,7.098,3.896,11.994c-0.506-2.804-3.925-5.641-5.025-4.513
			c-2.043,2.102,4.61,10.278,3.242,13.427c0,0-1.014-3.901-3.608-6.055c-2.269-1.885-2.121,0.046-0.569,3.919
			c2.667,6.653,0.095,11.248,0.095,11.248s-5.853-9.907-3.686-0.013c1.461,6.673-0.461,11.536-0.461,11.536
			s-2.539-13.154-8.896-5.883c-2.578,2.955-21.895,39.896-21.895,39.896s15.611,5.078,21.04,6.993
			c5.431,1.909,8.914,9.167,11.353,12.863c2.441,3.692,10.509,0.33,15.519-0.562c5.007-0.896,37.765-19.137,45.068-21.883
			c7.304-2.744,39.849-25.849,51.813-32.982c11.961-7.13,36.931-17.837,40.548-18.866c3.617-1.025,6.055,2.667,8.144,2.87
			c2.087,0.206,10.369,1.699,9.254-1.17c-1.118-2.875,2.983-8.7,2.983-8.7c8.281,1.497,29.64-1.261,33.189-1.607
			c3.553-0.346,8.068-3.359,13.774-4.186c5.707-0.827,16.703,1.631,21.223-1.39c4.52-3.012,2.219-8.081,4.722-11.986
			c2.5-3.905,6.814-4.869,9.245-8.088c2.436-3.222,5.356-4.32,6.465-8.359C956.65,335.728,955.464,333.538,955.878,329.431"/>
	</g>
</g>
</svg>
