<?xml version="1.0" encoding="utf-8"?>
<!-- Generator: Adobe Illustrator 16.0.0, SVG Export Plug-In . SVG Version: 6.00 Build 0)  -->
<!DOCTYPE svg PUBLIC "-//W3C//DTD SVG 1.1//EN" "http://www.w3.org/Graphics/SVG/1.1/DTD/svg11.dtd">
<svg version="1.1" xmlns="http://www.w3.org/2000/svg" xmlns:xlink="http://www.w3.org/1999/xlink" x="0px" y="0px"
	 width="2541.76px" height="1024px" viewBox="0 0 2541.76 1024" enable-background="new 0 0 2541.76 1024" xml:space="preserve">
<g id="Layer_1" display="none">
	<path display="inline" fill-rule="evenodd" clip-rule="evenodd" fill="#249FC3" d="M1412.63,375.76c0.92-0.34,1.84-0.88,2.79-1.01
		c3.55-0.46,7.15-0.74,10.7-1.21c4.51-0.58,24.89,0.41,24.64,1.11c-0.94,2.61-1.78,5.1-5.07,5.99c-0.93,0.23-1.56,2.63-1.82,4.13
		c-0.48,2.75-2.14,4.48-4.29,5.96c-1.07,0.74-18.21,12.28-18.43,11.1c-0.06-0.34-15.07,4.88-17.52,5.14
		c-3.95,0.43-6.12,1.57-6.98,4.54c-0.36,1.38,0.82,3.63-2.15,3.43c-1.69-0.11-3.39-0.26-5.04,0c-2.13,0.31-4.31,0.75-6.3,1.55
		c-1.92,0.79-3.74,2-5.44,3.2c-2.16,1.54-4.17,3.3-6.26,4.93c-4.56,3.56-9.12,7.17-13.72,10.69c-5.14,3.9-10.29,7.71-15.35,11.69
		c-5.14,4.05-10.08,8.43-15.32,12.35c-5.85,4.36-11.98,8.35-17.95,12.57c-3.6,2.56-7.34,4.98-10.55,7.92
		c-3.71,3.35-8.27,3.41-12.65,4.3c-0.17,0.01-0.48-0.42-0.69-0.73c-2.65-4.03-6.82-5.88-11.18-7.3c-2.17-0.71-4.63-0.82-6.99-0.94
		c-2.29-0.13-4.32-2.75-6.8-0.63c-0.06-0.3-0.27-0.62-0.16-0.86c0.61-1.77,1.18-3.55,2.01-5.22c8.8,0.92,15.3-63.94,15.52-65.07
		c0.05-0.19,0.15-0.36,0.23-0.53c0.23,0.3,0.53,0.57,0.68,0.87c2.35,4.07,4.56,8.18,7.04,12.15c1.95,3.18,4.19,6.21,6.34,9.24
		c0.77,1.03,5.93,2.41,6.21,2.29c0.96-0.52,2.22-1.12,3.14-0.86c3,0.73,5.18-0.63,7.55-2.08c2.25-1.33,4.86-2.01,7.21-3.22
		c1.67-0.87,2.98-2.33,4.67-3.19c3.82-1.92,7.78-3.59,11.65-5.42c1.41-0.69,2.68-1.72,4.14-2.32c2.58-1.12,5.3-1.92,7.88-3.04
		c0.71-0.31,1.06-1.43,1.72-1.97c1.3-1.03,2.69-1.88,4.02-2.86c2-1.46,3.79-3.35,6.02-4.3c2.04-0.86,3.51-4.01,6.52-2.07
		c0.29,0.23,1.01,0.33,1.09,0.18c1.78-2.65,4.02-0.81,5.85-0.39c2.7,0.59,2.08-1.05,1.56-2.04c-1.25-2.23,25.1-6.3,25.52-7.18
		c0.54-1.22,0.54-3.11,1.47-3.65c4-2.33,8.23-4.32,12.41-6.36c0.36-0.19,0.88-0.09,1.32-0.14c-0.03,0.4-0.06,0.78-0.14,1.15"/>
	<path display="inline" fill="#249FC3" d="M1444.4,176.98c0.34,1.37,2.5,2.27,3.87,3.39c0.26,0.18,0.63,0.22,0.97,0.35
		c-0.21,0.26-0.33,0.56-0.57,0.8c-1.09,1.3-1.65,3.45-4.19,2.69c-0.19-0.06-0.71,1.58-1.27,2.31c-0.54,0.74-1.2,1.47-1.97,2.01
		c-1.95,1.35-4.28,2.25-5.87,3.9c-3.41,3.6-6.53,7.44-9.59,11.35c-1.29,1.65-2.04,3.73-3.11,5.57c-0.72,1.18-1.99,2.16-2.27,3.41
		c-0.58,2.56-2.11,3.99-4.09,5.63c-1.78,1.49-6.73,22.25-6.93,22.33c0.13,0.09,0.3,0.18,0.48,0.26c0.39,0.16-3.05,1.79-4.04,2.96
		c-3.69,4.26-7.26,8.67-10.67,13.15c-2.26,2.92-4.25,6.07-6.36,9.12c-1.73,2.5-3.48,5.05-5.23,7.59
		c-3.74,5.55-7.48,11.12-11.19,16.69c-3.82,5.75-7.68,11.46-11.37,17.28c-2.02,3.17-3.76,6.53-5.64,9.77
		c-1.62,2.75-3.19,5.55-4.97,8.23c-3.3,4.95-6.8,9.71-10.04,14.71c-1.29,1.96-1.97,4.33-3.15,6.41c-0.95,1.7-1.84,3.69-4.58,1.83
		c-0.87-0.63-3.66-0.3-3.88,0.24c-0.58,1.47-0.7,3.46-0.19,4.95c0.52,1.57,0.49,1.66-1.16,2.04c-1.96,0.46-4,1.42-5.47,2.73
		c-1.56,1.36-4.69,0.96-4.84,3.99c0,0.07-0.83,0.29-1.08,0.13c-2.64-1.58-5.12-0.75-7.37,0.7c-6.42,4.16-12.74,8.4-19.12,12.64
		c-1.79,1.18-3.7,2.23-5.27,3.67c-1.94,1.79-4.55,3.23-4.62,6.5c-0.01,0.89-1.05,1.72-1.47,2.66c-2.87,5.92-4.15,12.2-4.1,18.75
		c0.05,10.72-1.4,21.22-4.77,31.41c-2.62,7.78-5.69,15.42-8.61,23.08c-0.67,1.69-0.6,10.19-0.39,10c0.08,0.27,0.23,0.53,0.18,0.79
		c-0.11,0.71-0.09,1.51-0.43,2.13c-2.11,3.73-4.14,7.49-6.48,11.12c-3.64,5.63-7.42,11.21-11.32,16.71
		c-2.95,4.12-6.2,8.11-9.4,12.08c-1.2,1.5-2.68,2.77-4.04,4.14c-0.29,0.28-111.48,81.66-108.69,83.84c0.33,0.28,0.02,1.37,0.01,2.06
		c-0.44-0.12-0.88-0.2-1.32-0.34c-0.81-0.27-1.61-0.72-2.48-0.84c-0.48-0.07-1.01,0.38-1.52,0.6c1.15,1.39-1.5,3.1,0.34,4.5
		c0.1,0.08-0.41,1.53-0.82,1.62c-2.85,0.72-0.6,1.7-0.15,2.55c0.12,0.23,0.38,0.42,0.59,0.65c-0.28,0.05-0.63,0.01-0.82,0.19
		c-0.38,0.34-0.83,0.76-0.9,1.18c-0.21,1.15-0.22,2.29-0.29,3.43c0,0.13,0.26,0.27,0.42,0.41c-2.25-0.37-1.09,1.64-1.6,2.45
		c-0.65,0.93-0.64,2.52-0.39,3.72c0.47,1.96,1.79,3.78,2.02,5.73c0.91,8.88,7.02,14.36,13.08,19.82c3.11,2.81,6.64,5.16,9.86,7.84
		c0.7,0.57,0.93,1.7,1.52,2.45c0.31,0.39,0.94,0.62,1.51,0.74c0.43,0.11,1.08-0.33,1.39-0.13c2.85,1.7,5.52,3.75,6.78,6.9
		c1.12,2.76,2.14,5.66,2.62,8.6c1.28,7.93,2.28,15.9,3.22,23.89c0.24,1.92,0.04,3.98-0.49,5.83c-0.23,0.65-2.77,9.71-2.87,9.85
		c-0.69,1.99-1.38,4-2.29,5.88c-3.91,8.42-39.29,76.55-39.38,77.08c-0.18,0.94,0.03,2.45,0.65,2.92c0.57,0.45,1.97-0.24,3.01-0.41
		c-3.05,7.6-11.41,16.31-4.24,21.31c1.32,0.92,29.35,23.54,49.09,44.16c-14.13,7.79-9.71,7.2-31.28,4.48
		c-21.45-3.55-22.11-29.75-43.38-19.12c-0.37,0.18-9.69-10.18-9.78-10.57c-9.74,6.74-4.53-5.52-5.55-5.46
		c-0.33,0.03,1.45-8.08,3.56-14.35c2.83-8.48,11.36-43.77,12-52.88c0.09-1.11,5.62-19.13,5.22-20.23c-0.4-1.16-2.04-2.14-3.38-2.65
		c-1.5-0.6-3.97,0.13-2.79-2.96c0.17-0.46-0.32-1.2-0.48-1.83c-0.43,0.31-0.84,0.62-1.26,0.9c-0.24,0.12-0.47,0.2-0.71,0.31
		c-0.09-0.35-0.04-0.8-0.25-1.04c-0.46-0.6-1-1.17-1.57-1.64c-0.65-0.52-1.37-1.01-2.11-1.42c-0.73-0.4-1.5-0.61-2.21-1.02
		c-1.24-0.66-3.01-1.12-3.49-2.16c-0.69-1.47-1.32-0.43-1.98-0.46c-0.52-0.04-1.05-0.08-1.58-0.11c-0.59-0.07-27.07,4.66-27.65,4.83
		c-52.1,63.44,27.25,70.65,17.73,84.5c-3.52,5.09-38.8,2.77-38.8,2.77c-27.25-13.31-7.41-24.02-27.15-27.46
		c-2.48-0.42-0.82-10.11-4.67-15.81c-7.68,6.71,5.68-37.85,25.73-58.21c-0.71-1.81,1.98-3.49,0.89-5.06
		c-1.2-1.77,5.09-0.99,3.5-2.47c-1.33-1.2-0.77-1.95-0.82-2.27c-0.09-0.43-6.56-2.71-6.82-3.64c-0.76-2.98-2.6-4.94-4.75-6.85
		c-0.64-0.54-1.03-1.34-1.53-2.03c-1.77-2.47-3.53-4.97-5.28-7.45c-0.64-0.9-1.22-1.85-1.92-2.74c-1.5-2-3.02-4.04-4.58-6.02
		c-0.04-0.03-0.74,0.23-0.88,0.5c-0.48,0.85-0.22,2.49-2.16,1.69c-0.18-0.08-1,1.28-1.51,2.04c-0.22,0.37-0.31,0.82-0.5,1.22
		c-0.22-0.35-0.44-0.7-0.71-1.02c-0.44-0.52-0.92-1.04-1.36-1.56c-0.54,0.75-1.09,1.55-1.59,2.3c-0.14,0.23-0.25,0.54-0.37,0.8
		c-1.08-0.59-1.11-0.59-1.43,0.94c-0.3,1.48-0.74,2.15-2.38,1.05c-2.13-1.4-4.46-0.32-5.28,2.15c-0.27,0.87-0.64,1.75-1.05,2.57
		c-0.22,0.37-0.67,0.64-1,0.94c-0.02-0.4-0.01-0.8-0.07-1.21c-0.01-0.22-0.07-0.49-0.14-0.73c-0.21,0.2-0.61,0.37-0.69,0.62
		c-0.67,2.85-3.85,1.91-5.39,3.5c-0.08,0.07-0.67-0.45-1.07-0.52c-0.42-0.06-0.91,0.01-1.34,0.14c-0.05,0-0.05,0.54,0.03,0.79
		c0.15,0.57,0.59,1.35,0.38,1.58c-0.64,0.73-1.49,1.31-2.31,1.86c-0.34,0.22-0.99,0.17-1.22,0.43c-0.96,1.35-1.61,3.65-2.82,3.92
		c-2.11,0.5-1.74,2.52-3.14,3.37c-1.71,0.99-3.01,2.69-4.43,4.11c-5.05,4.91-9.94,9.96-15.17,14.7
		c-1.96,1.82-25.56,16.77-25.73,16.88c-2.36,1.3-5.53,2.13-6.87,4.15c-11.11,4.3-30.75,6.94-35.49,7.52
		c-47.26,5.92-68.54-19.38-69.71-20.84c-22.95-28.82,33.29,13.54,54.03,10.11c79.92-14.06,107.21-78.92,118.71-94.78
		c0.1-0.16,11.86-14.41,11.63-15.54c-0.24-0.98-1.83-1.97-1.66-2.65c0.45-1.75,1.54-3.32,2.46-4.91c0.19-0.36,0.76-0.51,1.18-0.76
		c-0.27-0.37-0.55-0.73-0.8-1.11c-0.09-0.15-0.21-0.43-0.15-0.54c0.93-1.8,1.92-3.54,2.8-5.36c0.22-0.46-0.04-1.14,0.14-1.63
		c0.51-1.39,1.2-2.73,1.74-4.11c0.96-2.5,1.86-5.02,2.71-7.53c0.07-0.3-0.82-0.84-0.77-1.15l85.16-146.74l40.48-52.16
		c3.61-9.4,4.27-9.42,7.68-16.59c1.85-3.94,3.45-8,5.38-11.9c0.81-1.68,2.2-3.09,3.33-4.64c1.35,1.09,1.93-0.23,2.25-0.98
		c0.4-0.95,0.56-2.15,0.34-3.15c-0.31-1.27,1.67-6.93,2.89-7.42c0.12-0.05,0.32-0.02,0.45,0.05c1.65,0.68,2.72-0.01,3.15-1.95
		c1.06-4.59-1.98-8.04-3.34-11.91c-0.78-2.29-3.22-4.69-2.77-6.52c0.92-3.74-2.71-4.1-3.64-6.34c-1.15-2.61-3.59-4.64-5.1-7.1
		c-0.62-0.97-0.31-2.48-0.47-3.73c-0.05-0.28-0.42-0.53-0.67-0.78c-0.89,2.32-0.51-0.13-0.57-0.19c-0.72-1.26-0.69-1.09,0.45-1.41
		c0.69-0.19,1.24-0.99,1.85-1.51c-0.76-0.56-1.57-1.11-2.35-1.68c-0.45-0.3-1.2-0.55-1.31-0.96c-1.13-4.16-2.3-8.33-3.13-12.55
		c-0.23-1.19,0.57-2.6,0.92-3.88c0.05-0.19,0.18-0.34,0.15-0.49c-0.12-1.3-0.29-2.61-0.47-3.89c-1.05-7.09-0.6-14.1,1.07-21.03
		c0.46-1.92,0.33-3.95,0.76-5.88c0.23-1.1,0.92-2.1,1.42-3.16c0.15-0.28,0.32-0.54,0.46-0.83c-0.26,0.06-0.63,0.27-0.79,0.18
		c-0.44-0.4-1.13-0.83-1.2-1.33c-0.29-1.73-0.7-3.52-0.44-5.24c0.48-3.14,1.46-6.18,2.05-9.31c0.25-1.11,0.22-2.34,0.02-3.46
		c-0.33-1.81-1.38-3.59-1.31-5.34c0.16-3.07-2.4-3.93-3.95-5.5c-1.96-2-3.72-3.77-2.45-6.88c0.3-0.7,0.16-1.87-0.31-2.48
		c-3.95-5.5-3.31-11.1-0.43-16.73c2.14-4.23,5.99-5.18,9.95-2.68c1.8,1.15,3.68,2.2,5.65,3.04c1.97,0.85,3.78,0.5,5.61-1
		c2.16-1.73,4.65-3.16,7.14-4.44c2.42-1.21,5.08-0.8,6.64,1.27c0.82,1.08,0.53,3.21,0.26,4.79c-0.38,2.65-0.9,5.31,2.08,6.69
		c1.26,0.59,2.89,0.3,4.28,0.57c2.73,0.55,5.39,1.5,8.11,1.76c1.62,0.15,3.3-0.74,4.95-1.17c0.04,0,0.1-0.15,0.1-0.15
		c2.46,1.12,4.01-2.57,6.81-1.2c1.12,0.55,3.07-0.75,4.63-0.94c5.14-0.58,9.8,1.41,14.6,2.69c1.92,0.52,3.94,0.85,5.83,1.51
		c1.23,0.41,2.4,1.14,3.44,1.9c1.85,1.28,3.58,2.71,5.39,4.03c0.91,0.64,1.83,1.44,2.85,1.71c6.3,1.54,12.65,1.1,19.03,0.4
		c1.78-0.2,3.61,0.08,5.36-0.12c1.23-0.16,2.39-0.93,3.66-1.14c4.55-0.9,9.14-1.65,13.73-2.44c2.63-0.44,4.85-0.3,6.1,2.65
		c1.27,2.9,4.07,2.78,6.73,2.66h0.03c1.05,0.69,2.28,1.18,3.09,2.1c1.01,1.09,1.09,7.1,1.08,7.31c-0.07,1.89,0.26,3.96-0.46,5.57
		c-0.78,1.82-2.05,2.07-3.96,0.14c-0.05-0.05-0.09-0.09-0.14-0.13c0.04,0.23,0.06,0.47,0.07,0.7c0.39,7.38-8.67,13.88-20.24,14.51
		c-0.59,0.03-1.17,0.05-1.75,0.05c1.1,2.17,3.28,3.84,4.97,5.71c0.38,0.44,1.2,0.77,1.22,1.21c0.14,2.91,2.14,1.38,3.45,1.51
		c0.76,0.07,1.46,0.17,2.16,0.25c-0.26,0.65-0.36,1.46-0.85,1.94c-3.02,3.18-6.11,6.36-9.25,9.42c-0.57,0.57-1.56,0.73-2.36,1.05
		c-0.29,0.09-0.81,0.19-0.83,0.32c-0.08,2.83-8.13,3.12-8.53,3.11c-1.29,0.01-2.43-0.25-2.02,1.83c0.23,1.16-0.49,2.47-0.56,3.71
		c-0.01,0.79,0.3,1.62,0.64,2.34c0.66,1.53,1.48,3.02,2.25,4.5c0.2,0.32,0.53,0.72,0.89,0.77c1.82,0.24,3.67,0.21,5.44,0.65
		c1.11,0.28,2.01,1.43,3.14,1.8c1.51,0.53,3.22,0.53,4.77,0.97c4.28,1.21,8.47,2.64,12.77,3.8c1.48,0.4,3.11,0.14,4.68,0.32
		c3.28,0.4,6.55,1.21,9.86,1.28c3.65,0.06,7.38-0.27,10.96-0.89c3.83-0.64,7.55-1.88,11.36-2.8c1.5-0.36,3.32-0.05,4.54-0.78
		c4.15-2.49,8.14-5.33,12.15-8.03c9.25-6.2,16.79-14.35,24.87-21.85c2.9-2.67,5.5-5.62,8.24-8.47c0.32-0.32,0.67-0.68,0.74-1.09
		c0.49-2.35,2.51-2.9,4.29-3.73c0.21-0.07,0.35-0.3,0.48-0.46c-1.73-1.53,0.06-1,0.71-1.26c0.51-0.2,1.32-0.63,1.3-0.96
		c0.11-3.19,1.96-5.02,4.6-6.33c0.32-0.15,0.41-0.8,0.53-1.23c0.11-0.5-0.04-1.33,0.25-1.51c1.7-1.01,1.32-2.94,2.15-4.33
		c0.4-0.75,1.61-1.11,2.43-1.66c0.7-0.47,1.42-0.91,1.97-1.51c0.13-0.1-0.47-0.87-0.77-1.36c-0.07-0.15-0.19-0.44-0.15-0.46
		c0.56-0.32,1.29-0.48,1.69-0.94c1.02-1.11,1.9-2.34,2.79-3.54c0.05-0.03-0.04-0.19-0.08-0.29c2.4-0.77,2.13-5.1,5.77-4.29
		c0.29,0.06,0.96-0.43,1.05-0.75c0.51-2.1,1.6-2.61,3.75-1.92c1.01,0.33,2.34-0.32,3.55-0.53c0.08-0.01,0.14-0.21,0.23-0.32
		c-2.26-0.71,0.42-0.59,0.19-1.06c-0.32-0.71-0.45-1.48-0.65-2.22c-0.28-0.86-0.83-1.77-0.7-2.6c0.05-0.4,1.34-0.67,2.08-0.96
		c0.19-0.1,0.55-0.08,0.64-0.23c1.28-1.88,2.55-3.78,3.81-5.66c0.94-1.34,1.84-2.67,2.74-4c1.41-2.05,3.07-3.99,4.16-6.22
		c1.29-2.69,2.14-5.63,3.11-8.49c0.13-0.49-0.58-1.33-0.38-1.76c1.4-2.9,3.07-5.68,4.33-8.62c0.55-1.23-0.03-2.88,0.44-4.11
		c1.28-3.57,2.77-7.07,4.29-10.53c1.41-3.25,3.33-6.32,4.32-9.69c1-3.34,1.81-6.32,5.55-7.88c2.01-0.83,3.49-2.83,5.21-4.33
		c0.15-0.13,0.46-0.31,0.46-0.31c0.2,0.2,0.31,0.52,0.53,0.67c1.38,1.07,2.77,2.19,4.32,2.96c0.25,0.16,1.28-1.42,2.07-2.06
		c1.77-1.32,3.47-3.08,5.47-3.57c0.82-0.21,3.06-2.35,4.13,0.33c0.01,0.03,0.52-0.08,0.8-0.14c1.53-0.31,1.79,0.2,2.02,1.66
		c0.32,1.96,1.04,3.87,1.69,5.81c0.27,0.93,0.82,1.78,1.04,2.71c0.29,1.25,1.02,2.95-1.64,2.34c-0.24-0.05-1.04,0.78-0.96,1.04
		c0.33,1.35,0.65,2.8,1.38,3.98c0.45,0.76,1.52,1.31,2.39,1.67c0.84,0.37,1.92,0.25,2.8,0.57c0.3,0.13,0.55,1.16,0.35,1.47
		c-0.42,0.68-1.12,1.62-1.75,1.65C1445.87,174.39,1443.96,175.13,1444.4,176.98z"/>
</g>
<g id="Layer_2">
	<g>
		<path d="M481.96,93.76c-5.58,1.52-7.76-6.78-17.66-6.83c-9.91-0.05-10.69,12.67-10.72,15.15c0,7.21,4.19,17.74,4.19,17.74
			s-1.35,3.66,0.22,5.82c1.58,2.16,11.79,11.79,10.87,22.54c-0.91,10.75-6.58,53.28-4.52,84.89c0,0,30.69,55.1,23.44,74.4
			c-20.47,54.4-50.79,77.92-86.8,135.24c-36.03,57.35-113.88,193.81-121.79,209.41c-7.91,15.62,0.3,29.04-8.25,40.02
			c-8.59,10.97-62.7,100.39-99.69,121.72c-37.01,21.34-58,35.54-89.13,36.67c-31.08,1.16-42.95-13-54.38-18.43
			C16.31,826.72,1.63,820.19,0,822.32c0,0,11.88,25.84,42.23,36.69s95.84,9.99,138.05-19.07c42.2-29.04,91.95-82.71,102.42-79.45
			c10.47,3.23,32.62,46.65,32.62,46.65s-44.33,75.94-40.67,86.07c3.67,10.13,7.84,23.34,9.63,25.82c1.83,2.46,10.65,1.44,12.49,5.65
			c1.88,4.22,9.61,32.68,27.51,33.29c17.92,0.63,56.71,1.95,54.4-7.47c-2.3-9.43-55.1-31.33-51.45-63.18
			c3.66-31.85,21.18-50.15,25.27-52.93c4.09-2.75,34.68-7.33,42.49-7.03c7.8,0.28,26.37,14.5,27.45,20.13
			c1.06,5.62-28.7,114.63-29.39,122.86c-0.7,8.22,17.19,21.71,22.4,23.23c5.24,1.5,11.9-7.4,22.49,0
			c10.57,7.39,31.07,34.03,63.1,30.02c0,0,19.78-3,18.5-9.75c-1.29-6.75-71.1-58.5-72.6-67.88c-0.67-4.12,7.11-32.25,22.84-62.86
			c0,0,42.71-69.82,45.48-98.6c2.76-28.79-6.81-47.94-12.87-57.96c-6.07-9.98-37.72-18.63-41.79-39.42
			c-4.07-20.81-7.85-30.43,6.15-44.51c14.02-14.04,133.27-98.7,158.74-124.16c25.45-25.46,36.26-59.37,41.29-60.07
			c4.98-0.71,17.61-0.23,24.73,4.2c7.16,4.42,12.48,9.88,18.44,8.17c5.94-1.69,117.53-85.93,125.9-92
			c8.35-6.03,17.78-2.27,22.98-5.1c5.19-2.82,2.1-6.75,6.93-10.22c4.85-3.44,42.72-9.89,58.54-27.2
			c8.16-8.56,13.71-11.63,11.89-19.2c-1.83-7.54-31.34-4.54-51.29,0.5c-19.93,5.03-47.56,18.77-72.01,28.32
			c-24.48,9.57-77.72,55.14-95.82,45.1c-18.11-10.05-28.83-41.78-25.21-53.1c1.45-4.5,4.17-9.73,10.15-14.58
			c10.68-8.69,34.92-18.29,49.5-27.52c8.51-5.4,13.46-9.05,19.04-14.62c0,0,28.63-43.59,59.73-90.53
			c25.4-38.34,48.58-81.42,56.17-92.9c16.88-25.53,27.22-38.6,30.8-40.7c3.56-2.08,11.41-7.88,10.61-22.06
			c-0.81-14.18,1.42-28.87-7.31-33.55c-8.71-4.69-27.05,3.74-33.59,10.14c-6.58,6.4-22.8,53.73-30.41,74.46
			c-7.62,20.73-104.51,124.65-132.08,137.77c-27.58,13.13-87.05-0.74-96.74-7.24c-9.67-6.52-5.77-14.14-3.11-17.05
			c2.62-2.9,8.15,0.73,14.23-3.56c6.08-4.29,21.56-15.98,19.32-19.34c-2.27-3.37-1.88,0.63-9.67-4.2c-7.82-4.81-7.04-8.08-7.04-8.08
			s16.71-1.75,22.95-6.62c9.54-7.44,14.33-16.64,14.33-16.64s1.81-12.79-1.35-16.54c-3.15-3.8-10.54-11.96-19.37-10.76
			c-8.79,1.22-45.11,11.25-62.84,4.73c-17.73-6.53-3.64-12.11-42.81-16.69c0,0-13.93,4.93-24.53,5.04
			c-10.64,0.1-17.5-0.9-20.44-4.85c-2.94-3.94,3.02-15.03-3.48-16.66C495.58,82.94,487.52,92.25,481.96,93.76z"/>
		<g>
			<path d="M1044.09,190.66c-8.82-4.01-21.64-4.01-30.46-8.82c-18.43-17.62-4.8-52.09,8.82-57.69
				c124.23-48.09,266.09-17.63,355.04,84.15c17.63,151.47-160.29,200.36-270.89,240.44c-4.81,44.08,17.64,84.15,8.82,124.21
				c-8.82,26.45-40.07,48.9-75.34,40.08c-8.82-4.81-13.63-13.63-17.63-18.44c-13.62-106.59-8.82-208.37,0-310.15
				C1024.86,253.17,1026.46,217.92,1044.09,190.66z M1115.43,354.95c62.52,21.64,155.48-40.07,173.11-110.6
				c-52.89-40.07-115.41-84.16-181.93-66.52c-4.81,0,17.64,12.82,17.64,26.45c0,22.45-13.63,40.07-13.63,61.71
				C1110.61,298.05,1088.97,346.15,1115.43,354.95z"/>
			<path d="M1519.39,115.33c7.22-11.22,45.69-21.64,53.7-4.01c42.47,90.56,57.7,188.33,83.35,289.32
				c0,10.42,17.63,10.42,24.84,21.64c4.01,7.22,4.01,17.64,0,21.64c-24.84,53.7,25.65,97.77,18.44,148.27
				c-3.21,21.63-45.69,31.25-61.71,10.42c-27.26-36.87-7.22-96.17-46.49-119.43c-29.65-16.83-76.13-11.21-104.99,11.22
				c-36.86,28.05-11.21,151.47-93.77,112.21c-11.21-50.5,17.63-97.79,28.86-148.27c14.42-64.92,32.06-133.84,53.7-198.76
				C1492.94,208.29,1490.54,154.59,1519.39,115.33z M1504.16,418.28c19.23,10.42,68.93,14.42,76.13-10.42
				c14.44-50.5-14.42-100.99-36.06-148.27c-17.62,21.64-21.63,47.29-24.84,72.13C1514.58,364.58,1483.33,407.05,1504.16,418.28z"/>
			<path d="M1722.19,240.35c8.82-29.65,56.1-55.3,75.34-25.65c30.45,45.69-4.01,100.99,8.82,155.48
				c8.81,37.68,8.01,75.34,33.66,104.99c41.67-46.48,45.68-113.8,83.35-159.48c58.5-71.33,113.81,24.84,134.64,88.16
				c0,8.01,12.02,28.85,16.83,24.84c58.5-71.33,4.01-163.49,24.84-247.65c8.01-16.04,42.47-33.67,58.51-20.85
				c46.48,37.68,25.65,101,25.65,155.49c0,54.49-12.82,109-33.66,163.49c-8.82,16.83-17.63,36.87-33.67,49.69
				c-46.48,37.68-84.14-4.01-104.98-45.69c-16.84-33.66-28.86-58.5-50.5-88.15c-45.69,63.31-66.52,197.16-171.51,172.31
				C1722.19,475.17,1701.36,353.35,1722.19,240.35z"/>
			<path d="M2199.09,216.3c69.72-87.36,187.54-88.15,288.52-113.8c21.64-5.62,44.88,8.82,52.1,26.44
				c9.61,21.64-16.83,39.28-34.46,43.28c-61.71,22.43-126.63,13.62-183.53,44.08c-8.82,4.81-17.63,12.82-13.63,21.64
				c65.71,100.99,245.24,136.26,209.98,266.88c-30.46,113.81-197.16,133.04-297.34,87.37c-44.88-20.04-17.63-78.55,21.64-96.19
				c22.44-4.01,22.44,26.45,39.26,31.26c17.63,4.01,35.27,0,52.9,8.82c35.26,16.83,65.72-4.81,96.17-17.63
				c17.62-13.63,17.62-35.27,8.82-52.89c-61.71-78.54-153.08-109-214.79-188.34C2206.31,253.17,2181.46,237.94,2199.09,216.3z"/>
		</g>
		<g>
			<path d="M1075.28,717.01c0-3.5,3.5-10.5,7.01-10.5c35.4-12.46,76.64-9.33,110.09,8.96c12.83,6.61,0,17.5-8.55,22.95
				c-23.34,10.89-42.8-14.01-66.14-10.51c-5.05,33.85,7.39,67.3,14.4,99.59c19.44,1.55,63.79-13.23,62.63,13.62
				c-0.78,19.45-45.13,5.45-52.13,19.85c-8.94,19.44,10.89,42.79,16.35,64.19c7,19.45-19.84,28.4-30.35,19.45
				c-21.39-21.4-12.44-56.81-31.9-79.76c-1.95-3.88-10.89,1.57-17.9,0c-7-1.95-14.39-8.94-8.94-16.33c5.44-7,19.45-10.5,21.4-17.51
				c3.5-14.4-3.5-28.4-7-42.79C1078,763.7,1073.72,740.35,1075.28,717.01z"/>
			<path d="M1338.24,790.93c30.34,39.3,17.12,95.7-21.4,121.38c-25.29,17.12-55.24,19.06-78.59,1.95
				c-23.34-17.12-38.13-46.69-29.95-76.64C1223.48,785.49,1292.34,731.41,1338.24,790.93z M1287.27,893.25
				c24.9-11.67,34.23-40.85,27.63-68.09c-3.89-15.17-25.68-19.85-38.52-17.12c-12.84,2.34-29.95,41.24-27.63,53.3
				C1253.04,880.41,1265.49,902.98,1287.27,893.25z"/>
			<path d="M1373.23,739.19c-1.95-9.33-7.39-22.56,1.95-28.01c46.69-28.02,106.6-3.5,134.61,41.23
				c16.72,26.06-14.78,50.58-37.34,65.36c7.39,39.3,19.06,80.53,37.34,115.94c5.84,11.28-18.67,19.06-28.01,11.28
				c-33.85-28.02-23.74-78.98-52.13-110.48c-5.44-5.85-24.51-5.46-28.4,1.93c-9.34,29.96,8.17,61.86,9.33,91.81
				c0.39,7.39-14.78,13.23-26.06,11.28c-5.46-1.95-9.35-7.39-11.29-11.28c-12.83-33.84-9.34-71.18-9.34-106.59
				C1363.89,793.65,1382.57,763.7,1373.23,739.19z M1407.08,799.1c22.56,5.44,48.62-1.95,65.36-16.74
				c3.89-1.93,11.28-7.78,7.39-13.21c-10.9-22.57-35.41-31.52-56.03-33.85c-14.78-1.55-11.28,24.51-14.78,35.79
				C1405.91,780.04,1397.74,796.77,1407.08,799.1z"/>
			<path d="M1654.84,705.73c3.5-5.43,22.18-10.5,26.07-1.93c20.62,43.95,28.01,91.42,40.46,140.43c0,5.07,8.55,5.07,12.05,10.51
				c1.95,3.5,1.95,8.55,0,10.5c-12.05,26.07,12.46,47.46,8.96,71.98c-1.56,10.5-22.18,15.17-29.96,5.05
				c-13.23-17.9-3.5-46.69-22.56-57.97c-14.4-8.16-36.96-5.44-50.96,5.45c-17.9,13.62-5.46,73.53-45.53,54.47
				c-5.44-24.51,8.56-47.46,14.01-71.97c7-31.52,15.56-64.97,26.06-96.49C1642.01,750.86,1640.85,724.79,1654.84,705.73z
				 M1647.45,852.79c9.33,5.05,33.46,7,36.96-5.07c7-24.51-7.01-49.01-17.51-71.97c-8.56,10.5-10.51,22.95-12.06,35.02
				C1652.51,826.73,1637.33,847.35,1647.45,852.79z"/>
			<path d="M1838.43,731.03c-3.51-3.12-11.67,0-15.17-5.07c-8.17-13.23,6.61-26.45,13.23-26.45c23.33,0,49.8-3.11,69.63,8.17
				c18.29,10.5,41.64,10.11,54.86,28.39c1.55,3.12,3.11,8.17,1.55,11.67c-16.35,13.24-29.96,28.02-49.8,39.69
				c-1.55,0-9.73,5.05-4.67,6.61c26.45,5.06,52.92,18.29,59.52,41.24c7.01,24.9-8.94,45.52-26.45,63.02
				c-24.12,24.12-51.35,48.24-84.42,49.8c-6.61,0.39-18.28-5.05-13.62-14.78c3.5-6.62,13.62-13.23,13.62-16.74
				c3.11-29.95-3.5-59.51-8.55-89.47c-1.57-9.73-11.67-21.4-3.12-33.07c3.12-3.5,1.55-13.21,0-19.83
				C1841.15,759.41,1851.66,739.19,1838.43,731.03z M1879.66,769.15c16.72,1.54,31.52-10.13,35.02-21.41
				c3.11-6.61-13.23-8.93-21.79-13.21c-9.73-5.46-13.23,6.61-14.78,14.78C1876.94,755.92,1881.22,762.53,1879.66,769.15z
				 M1894.83,901.81c17.9-15.17,42.8-29.95,37.73-54.85c-3.11-16.33-36.18-33.07-47.85-19.84c-5.05,8.17,1.57,23.34,3.12,36.57
				C1889.78,876.91,1889.78,890.13,1894.83,901.81z"/>
			<path d="M1983.9,745.81c21.79-31.91,73.53-35.8,105.82-10.51c7,5.45,0,17.9-12.44,19.85c-16.34,1.95-32.68-10.9-48.63-3.89
				c-19.84,8.94-3.5,37.73-10.89,55.63c23.33,12.83,57.58-10.51,70.02,19.84c-14.39,25.28-49.8,5.83-64.58,21.78
				c-12.06,12.83-5.44,39.29-3.5,60.69c28.79,5.45,53.69-14,80.91-21.4c1.56-1.95,5.06,1.95,7.01,3.51
				c3.5,12.83-1.95,23.33-12.46,27.22c-28.79,10.12-54.08,24.9-84.42,23.34c-8.94-1.95-21.78,1.55-23.34-7.39
				c-8.94-28.79,1.95-57.58-5.44-85.98c-1.55-5.84-10.89-12.85-5.44-19.84c0-1.93,3.5-3.5,5.44-5.44c3.5-7.39,1.95-16.33,1.95-23.33
				C1983.9,781.98,1973.4,760.59,1983.9,745.81z"/>
			<path d="M2123.54,745.81c21.79-31.91,73.53-35.8,105.82-10.51c7,5.45,0,17.9-12.44,19.85c-16.35,1.95-32.68-10.9-48.63-3.89
				c-19.85,8.94-3.5,37.73-10.89,55.63c23.33,12.83,57.58-10.51,70.02,19.84c-14.39,25.28-49.8,5.83-64.58,21.78
				c-12.06,12.83-5.45,39.29-3.5,60.69c28.79,5.45,53.69-14,80.91-21.4c1.56-1.95,5.06,1.95,7.01,3.51
				c3.5,12.83-1.95,23.33-12.46,27.22c-28.79,10.12-54.08,24.9-84.42,23.34c-8.94-1.95-21.78,1.55-23.34-7.39
				c-8.95-28.79,1.95-57.58-5.45-85.98c-1.55-5.84-10.89-12.85-5.45-19.84c0-1.93,3.5-3.5,5.45-5.44c3.5-7.39,1.95-16.33,1.95-23.33
				C2123.54,781.98,2113.04,760.59,2123.54,745.81z"/>
			<path d="M2266.67,739.19c-1.95-9.33-7.39-22.56,1.95-28.01c46.69-28.02,106.6-3.5,134.61,41.23
				c16.73,26.06-14.78,50.58-37.34,65.36c7.39,39.3,19.06,80.53,37.34,115.94c5.84,11.28-18.67,19.06-28.01,11.28
				c-33.85-28.02-23.73-78.98-52.13-110.48c-5.45-5.85-24.51-5.46-28.4,1.93c-9.33,29.96,8.17,61.86,9.34,91.81
				c0.39,7.39-14.78,13.23-26.06,11.28c-5.46-1.95-9.35-7.39-11.29-11.28c-12.83-33.84-9.33-71.18-9.33-106.59
				C2257.34,793.65,2276.02,763.7,2266.67,739.19z M2300.53,799.1c22.56,5.44,48.62-1.95,65.36-16.74
				c3.89-1.93,11.28-7.78,7.39-13.21c-10.9-22.57-35.41-31.52-56.02-33.85c-14.78-1.55-11.28,24.51-14.78,35.79
				C2299.35,780.04,2291.19,796.77,2300.53,799.1z"/>
		</g>
	</g>
</g>
</svg>
